<?xml version="1.0" encoding="UTF-8" standalone="no"?>
<!-- Created with Inkscape (http://www.inkscape.org/) -->

<svg
   width="226.93985mm"
   height="130.00679mm"
   viewBox="0 0 857.72544 491.36425"
   version="1.1"
   id="svg1"
   xml:space="preserve"
   xmlns:inkscape="http://www.inkscape.org/namespaces/inkscape"
   xmlns:sodipodi="http://sodipodi.sourceforge.net/DTD/sodipodi-0.dtd"
   xmlns="http://www.w3.org/2000/svg"
   xmlns:svg="http://www.w3.org/2000/svg"><sodipodi:namedview
     id="namedview1"
     pagecolor="#ffffff"
     bordercolor="#000000"
     borderopacity="0.25"
     inkscape:showpageshadow="2"
     inkscape:pageopacity="0.0"
     inkscape:pagecheckerboard="0"
     inkscape:deskcolor="#d1d1d1"
     inkscape:document-units="mm" /><defs
     id="defs1"><clipPath
       id="clipPath34"
       clipPathUnits="userSpaceOnUse"><path
         id="path32"
         d="M 404.189,2704.49 H 1955.39 v 418.673 H 404.189 Z" /></clipPath><clipPath
       id="clipPath46"
       clipPathUnits="userSpaceOnUse"><path
         id="path44"
         d="m 945.887,3018.923 h 461.289 v 219.241 H 945.887 Z" /></clipPath><clipPath
       id="clipPath58"
       clipPathUnits="userSpaceOnUse"><path
         id="path56"
         d="m 374.097,2733.738 h 1528.5 v 406.094 h -1528.5 z" /></clipPath><clipPath
       id="clipPath70"
       clipPathUnits="userSpaceOnUse"><path
         id="path68"
         d="m 900.422,3035.364 h 461.288 v 219.243 H 900.422 Z" /></clipPath><clipPath
       id="clipPath82"
       clipPathUnits="userSpaceOnUse"><path
         id="path80"
         d="m 404.215,2704.49 h 1558.866 v 543.876 H 404.215 Z" /></clipPath><clipPath
       id="clipPath94"
       clipPathUnits="userSpaceOnUse"><path
         id="path92"
         d="m 841.204,2700.252 h 694.529 v 317.129 H 841.204 Z" /></clipPath><clipPath
       id="clipPath102"
       clipPathUnits="userSpaceOnUse"><path
         id="path100"
         d="m 1162.738,3005.025 h 53.547 v 12.233 h -53.547 z" /></clipPath><linearGradient
       id="linearGradient120"
       gradientTransform="matrix(1346.871,79.271,-92.283,1156.956,1479.641,2517.341)"
       gradientUnits="userSpaceOnUse"
       y2="0.44"
       x2="0.5"
       y1="0"
       x1="0.5"><stop
         id="stop116"
         offset="0"
         style="stop-opacity:1;stop-color:#f0b88d" /><stop
         id="stop118"
         offset="1"
         style="stop-opacity:1;stop-color:#eeb786" /></linearGradient><linearGradient
       id="linearGradient128"
       gradientUnits="userSpaceOnUse"
       y2="1"
       x2="0.5"
       y1="0.44"
       x1="0.5"><stop
         id="stop124"
         offset="0"
         style="stop-opacity:1;stop-color:#eeb786" /><stop
         id="stop126"
         offset="1"
         style="stop-opacity:1;stop-color:#ecc98f" /></linearGradient><clipPath
       id="clipPath138"
       clipPathUnits="userSpaceOnUse"><path
         id="path136"
         d="M 1206.743,3002.111 H 1327.4 v 15.27 h -120.657 z" /></clipPath><clipPath
       id="clipPath148"
       clipPathUnits="userSpaceOnUse"><path
         id="path146"
         d="M 841.204,2782.522 H 955.21 v 111.764 H 841.204 Z" /></clipPath><clipPath
       id="clipPath158"
       clipPathUnits="userSpaceOnUse"><path
         id="path156"
         d="m 1038.83,2723.632 h 492.145 v 148.867 H 1038.83 Z" /></clipPath><clipPath
       id="clipPath168"
       clipPathUnits="userSpaceOnUse"><path
         id="path166"
         d="m 1415.344,2912.695 h 80.354 v 70.032 h -80.354 z" /></clipPath><clipPath
       id="clipPath178"
       clipPathUnits="userSpaceOnUse"><path
         id="path176"
         d="m 1410.843,2942.323 h 10.744 v 47.031 h -10.744 z" /></clipPath><clipPath
       id="clipPath188"
       clipPathUnits="userSpaceOnUse"><path
         id="path186"
         d="m 1390.734,2965.473 h 6.995 v 29.841 h -6.995 z" /></clipPath><clipPath
       id="clipPath198"
       clipPathUnits="userSpaceOnUse"><path
         id="path196"
         d="m 921.96,2879.476 h 481.95 v 135.7 H 921.96 Z" /></clipPath><clipPath
       id="clipPath208"
       clipPathUnits="userSpaceOnUse"><path
         id="path206"
         d="m 1020.277,2830.527 h 36.985 v 88.465 h -36.985 z" /></clipPath><clipPath
       id="clipPath218"
       clipPathUnits="userSpaceOnUse"><path
         id="path216"
         d="m 858.699,2854.281 h 136.385 v 94.246 H 858.699 Z" /></clipPath><clipPath
       id="clipPath228"
       clipPathUnits="userSpaceOnUse"><path
         id="path226"
         d="m 1297.593,2870.912 h 12.771 v 13.511 h -12.771 z" /></clipPath><clipPath
       id="clipPath238"
       clipPathUnits="userSpaceOnUse"><path
         id="path236"
         d="m 1078.761,2805.596 h 207.855 v 95.979 h -207.855 z" /></clipPath><clipPath
       id="clipPath248"
       clipPathUnits="userSpaceOnUse"><path
         id="path246"
         d="m 1301.131,2824.622 h 234.602 v 120.723 h -234.602 z" /></clipPath><clipPath
       id="clipPath258"
       clipPathUnits="userSpaceOnUse"><path
         id="path256"
         d="m 966.58,2785.266 h 30.793 v 75.793 H 966.58 Z" /></clipPath><clipPath
       id="clipPath268"
       clipPathUnits="userSpaceOnUse"><path
         id="path266"
         d="m 1035.972,2814.437 h 20.077 v 22.6 h -20.077 z" /></clipPath><clipPath
       id="clipPath278"
       clipPathUnits="userSpaceOnUse"><path
         id="path276"
         d="m 866.463,2715.406 h 145.676 v 72.011 H 866.463 Z" /></clipPath><clipPath
       id="clipPath288"
       clipPathUnits="userSpaceOnUse"><path
         id="path286"
         d="m 1040.593,2700.252 h 432.43 v 81.683 h -432.43 z" /></clipPath><clipPath
       id="clipPath298"
       clipPathUnits="userSpaceOnUse"><path
         id="path296"
         d="m 1381.357,2894.247 h 51.396 v 103.759 h -51.396 z" /></clipPath><clipPath
       id="clipPath308"
       clipPathUnits="userSpaceOnUse"><path
         id="path306"
         d="m 933.355,2708.785 h 153.043 V 2931.39 H 933.355 Z" /></clipPath><clipPath
       id="clipPath318"
       clipPathUnits="userSpaceOnUse"><path
         id="path316"
         d="m 1227.705,2797.466 h 99.605 v 156.299 h -99.605 z" /></clipPath><clipPath
       id="clipPath330"
       clipPathUnits="userSpaceOnUse"><path
         id="path328"
         d="m 634.141,2623.039 h 71.076 v 398.543 h -71.076 z" /></clipPath><clipPath
       id="clipPath342"
       clipPathUnits="userSpaceOnUse"><path
         id="path340"
         d="m 790.971,2399.953 h 232.396 V 3265.53 H 790.971 Z" /></clipPath><clipPath
       id="clipPath354"
       clipPathUnits="userSpaceOnUse"><path
         id="path352"
         d="m 1121.567,2362.02 h 462.752 v 939.238 h -462.752 z" /></clipPath><clipPath
       id="clipPath366"
       clipPathUnits="userSpaceOnUse"><path
         id="path364"
         d="m 1293.123,2515.895 h 506.265 v 770.028 h -506.265 z" /></clipPath><clipPath
       id="clipPath378"
       clipPathUnits="userSpaceOnUse"><path
         id="path376"
         d="m 1742.026,2515.895 h 304.308 v 598.066 h -304.308 z" /></clipPath></defs><g
     inkscape:label="Layer 1"
     inkscape:groupmode="layer"
     id="layer1"
     transform="translate(1586.2477,602.8449)"><g
       transform="matrix(0.52315206,0,0,-0.52315206,-1781.9573,1124.215)"
       id="g12"><g
         id="g26"><g
           id="g28"><g
             clip-path="url(#clipPath34)"
             id="g30"><path
               id="path36"
               style="fill:#ecc486;fill-opacity:1;fill-rule:evenodd;stroke:none"
               d="m 1166.9973,3101.4786 c 415.7863,35.6968 788.393,37.9863 788.393,-76.2099 0,-114.1961 -376.2459,-320.779 -783.8996,-320.779 -407.6537,0 -773.6049,68.2314 -767.2771,186.8617 3.8952,115.6623 346.9975,174.4304 762.7837,210.1272" /></g></g></g><g
         id="g38"><g
           id="g40"><g
             clip-path="url(#clipPath46)"
             id="g42"><path
               id="path48"
               style="fill:#ecc486;fill-opacity:1;fill-rule:evenodd;stroke:none"
               d="m 961.3299,3199.5771 c 122.1458,8.47 243.9466,21.3405 365.165,38.5866 l 80.6809,-191.1787 -461.288,-28.063 15.4421,180.6551" /></g></g></g><g
         id="g50"><g
           id="g52"><g
             clip-path="url(#clipPath58)"
             id="g54"><path
               id="path60"
               style="fill:#b5563a;fill-opacity:1;fill-rule:evenodd;stroke:none"
               d="m 1114.2037,3118.148 c 415.7861,35.6969 788.3928,37.9863 788.3928,-76.2098 0,-114.1961 -380.7392,-308.1992 -788.3928,-308.1992 -407.6537,0 -746.3896,59.0749 -740.0618,177.7052 3.8952,115.6622 324.2756,171.007 740.0618,206.7038" /></g></g></g><g
         id="g62"><g
           id="g64"><g
             clip-path="url(#clipPath70)"
             id="g66"><path
               id="path72"
               style="fill:#b5563a;fill-opacity:1;fill-rule:evenodd;stroke:none"
               d="m 915.864,3216.0202 c 122.1457,8.47 243.9465,21.3405 365.1649,38.5865 l 80.6809,-191.1786 -461.2879,-28.063 15.4421,180.6551" /></g></g></g><g
         id="g74"><g
           id="g76"><g
             clip-path="url(#clipPath82)"
             id="g78"><path
               id="path84"
               style="fill:#000000;fill-opacity:1;fill-rule:evenodd;stroke:none"
               d="m 1383.9178,3125.8359 -51.7099,122.5298 c -126.7668,-18.2089 -254.1714,-31.6619 -381.9457,-40.3308 L 939.996,3087.9316 c -13.6847,-1.6228 -27.3633,-3.2968 -41.0355,-5.0218 -36.6133,-4.6207 -73.1527,-9.8095 -109.605,-15.5646 -37.9094,-5.9672 -75.6635,-12.8821 -113.227,-20.7382 -25.8521,-5.4474 -51.5425,-11.6355 -77.0396,-18.5567 -18.0718,-4.9358 -35.9792,-10.4552 -53.6939,-16.5497 -16.6302,-5.7413 -32.9722,-12.2855 -48.9686,-19.6096 -13.5185,-6.1883 -26.5541,-13.3814 -38.9971,-21.5188 -8.5742,-5.6183 -16.6323,-11.9874 -24.079,-19.0322 -6.6363,-6.2413 -12.4559,-13.2975 -17.3201,-21.0003 -8.2441,-12.9383 -12.3648,-28.0752 -11.8166,-43.4071 0.1972,-6.1198 1.2192,-12.185 3.0382,-18.0316 2.7735,-8.7056 6.9997,-16.8792 12.4995,-24.1752 5.2817,-7.0615 11.351,-13.4979 18.0905,-19.1846 5.7921,-4.9539 11.8975,-9.5294 18.2781,-13.6981 8.216,-5.3672 16.7309,-10.2623 25.5034,-14.6615 11.7436,-5.8934 23.7752,-11.1942 36.0495,-15.8828 16.8146,-6.4276 33.9026,-12.1159 51.2149,-17.0484 23.9164,-6.8198 48.0843,-12.7243 72.451,-17.7006 33.6729,-6.8888 67.567,-12.6484 101.6253,-17.2691 45.8444,-6.2394 91.8629,-11.124 137.9955,-14.6477 59.1126,-4.521 118.3322,-7.5143 177.5994,-8.9768 33.4501,-0.9688 66.9146,-1.3577 100.3782,-1.1665 33.9073,0.1892 67.7992,1.4947 101.6206,3.9144 35.8637,2.6537 71.6136,6.6683 107.1726,12.0353 76.5055,11.5154 151.9957,28.9837 225.783,52.246 36.0664,11.3714 71.6283,24.2851 106.5874,38.7056 30.952,12.7573 61.2843,26.9692 90.8954,42.5882 23.6776,12.4653 46.6524,26.222 68.8206,41.2079 16.4064,11.0583 32.0731,23.1761 46.9002,36.2762 10.4411,9.1967 20.1376,19.2056 28.9986,29.933 6.2321,7.5125 11.7327,15.6027 16.4272,24.1607 3.529,6.4098 6.3217,13.1981 8.3249,20.2356 1.6967,5.9605 2.576,12.1237 2.6138,18.3208 0,3.7036 -0.3376,7.3995 -1.0226,11.0392 -1.8881,9.4403 -5.9998,18.2944 -11.9942,25.8278 -4.366,5.451 -9.3813,10.3486 -14.9344,14.584 -7.6422,5.7417 -15.8499,10.6892 -24.4958,14.7658 -10.7649,5.0418 -21.8767,9.307 -33.2504,12.7628 -13.4096,4.0764 -27.0122,7.4888 -40.7582,10.2246 -20.406,4.0446 -40.9742,7.2236 -61.6492,9.5283 -31.5386,3.4966 -63.1919,5.8664 -94.8996,7.1049 -36.192,1.4815 -72.4149,2.0775 -108.6361,1.7874 -33.056,-0.2054 -66.1073,-0.8839 -99.1439,-2.0351 -29.4706,-1.0268 -58.9316,-2.3159 -88.3792,-3.8672 z m -435.3442,-37.0215 9.9298,110.8398 c 123.1465,8.5394 245.9452,21.5154 368.1569,38.9027 l 49.2655,-113.3096 c -142.7264,-8.659 -285.2197,-20.8069 -427.3522,-36.4329 z m 432.6547,28.9405 c 63.3752,3.2229 126.8192,4.9096 190.2761,5.0586 36.0811,0.2891 72.1639,-0.3046 108.2159,-1.7805 31.4974,-1.2301 62.9408,-3.5841 94.2702,-7.0574 20.4226,-2.2767 40.7396,-5.4168 60.8966,-9.412 24.7949,-4.5119 48.9537,-12.0031 71.9513,-22.3109 8.0835,-3.8121 15.7578,-8.4373 22.9045,-13.8038 4.9616,-3.7875 9.4435,-8.1653 13.3466,-13.0365 7.1894,-8.831 11.0998,-19.8786 11.067,-31.266 -0.373,-12.0708 -3.7537,-23.8576 -9.8354,-34.291 -4.4235,-8.0649 -9.6073,-15.6888 -15.4806,-22.768 -8.564,-10.3687 -17.9359,-20.0426 -28.0278,-28.9312 -14.5389,-12.8459 -29.9014,-24.7284 -45.9893,-35.5717 -21.9,-14.8048 -44.5969,-28.3952 -67.988,-40.7096 -62.7857,-32.7116 -128.3849,-59.7128 -196.0057,-80.6776 -139.6974,-44.4234 -285.3532,-67.2805 -431.943,-67.7828 -92.5118,-0.222 -184.9974,3.1531 -277.247,10.1175 -45.9583,3.5103 -91.8029,8.3766 -137.474,14.5923 -33.862,4.5941 -67.5608,10.3205 -101.0397,17.1697 -41.6237,8.0955 -82.5158,19.5811 -122.2675,34.3418 -20.9526,7.7328 -41.0189,17.6823 -59.8573,29.6791 -13.05,8.2264 -24.589,18.6347 -34.113,30.7701 -17.122,21.8632 -18.4567,52.1911 -3.3215,75.4739 4.4664,7.0757 9.8115,13.5569 15.9075,19.2886 7.0643,6.6841 14.7089,12.7271 22.8433,18.0574 12.0688,7.8924 24.7122,14.869 37.824,20.8712 32.733,14.635 66.6105,26.5625 101.2922,35.6628 25.3279,6.8751 50.8479,13.0222 76.5285,18.4335 73.5253,15.0241 147.6234,27.0947 222.1157,36.1826 16.0549,2.0257 32.1187,3.9808 48.1908,5.8653 143.9508,16.5279 288.3239,29.1441 432.9596,37.8346" /></g></g></g><g
         id="g86"
         transform="matrix(1,0,0,0.81365274,0,562.28069)"><g
           id="g88"><g
             clip-path="url(#clipPath94)"
             id="g90"><g
               id="g96"><g
                 clip-path="url(#clipPath102)"
                 id="g98"><g
                   id="g104"><path
                     id="path106"
                     style="fill:#ecc98f;fill-opacity:1;fill-rule:evenodd;stroke:none"
                     d="m 1162.7383,3015.1764 c 4.3918,0.3342 8.7875,0.6298 13.1863,0.887 10.2598,0.6079 20.535,1.0062 30.8168,1.1944 3.032,-4.1623 6.2149,-8.2423 9.5439,-12.2341 -5.8336,0.7263 -11.6462,1.5722 -17.4327,2.537 -6.2511,1.1268 -12.4823,2.3335 -18.6915,3.6197 -5.3759,1.1629 -10.734,2.3855 -16.0731,3.6674 l -1.3497,0.3286" /><g
                     id="g108"><g
                       id="g114"><path
                         id="path122"
                         style="fill:url(#linearGradient120);fill-rule:evenodd;stroke:none"
                         d="m 1162.7383,3015.1764 c 4.3918,0.3342 8.7875,0.6298 13.1863,0.887 10.2598,0.6079 20.535,1.0062 30.8168,1.1944 3.032,-4.1623 6.2149,-8.2423 9.5439,-12.2341 -5.8336,0.7263 -11.6462,1.5722 -17.4327,2.537 -6.2511,1.1268 -12.4823,2.3335 -18.6915,3.6197 -5.3759,1.1629 -10.734,2.3855 -16.0731,3.6674 l -1.3497,0.3286" /><path
                         id="path130"
                         style="fill:url(#linearGradient128);fill-rule:evenodd;stroke:none"
                         d="m 1162.7383,3015.1764 c 4.3918,0.3342 8.7875,0.6298 13.1863,0.887 10.2598,0.6079 20.535,1.0062 30.8168,1.1944 3.032,-4.1623 6.2149,-8.2423 9.5439,-12.2341 -5.8336,0.7263 -11.6462,1.5722 -17.4327,2.537 -6.2511,1.1268 -12.4823,2.3335 -18.6915,3.6197 -5.3759,1.1629 -10.734,2.3855 -16.0731,3.6674 l -1.3497,0.3286" /></g></g></g></g></g><g
               id="g132"><g
                 clip-path="url(#clipPath138)"
                 id="g134"><path
                   id="path140"
                   style="fill:#f6ddb8;fill-opacity:1;fill-rule:nonzero;stroke:none"
                   d="m 1327.4004,3009.3582 c -24.4636,3.7961 -49.1864,6.2386 -74.0154,7.3124 -15.5346,0.6761 -31.0926,0.8719 -46.6436,0.5872 3.032,-4.1623 6.2149,-8.2423 9.5439,-12.2341 5.4132,-0.674 10.8432,-1.2449 16.286,-1.7122 3.9184,-0.3123 7.8429,-0.5665 11.7716,-0.7624 9.7396,-0.5255 19.5058,-0.584 29.253,-0.1751 10.5758,0.472 21.1124,1.4524 31.5602,2.9366 7.4777,1.0807 14.8991,2.4311 22.2443,4.0476" /></g></g><g
               id="g142"><g
                 clip-path="url(#clipPath148)"
                 id="g144"><path
                   id="path150"
                   style="fill:#f6ddb8;fill-opacity:1;fill-rule:nonzero;stroke:none"
                   d="m 945.9235,2796.7024 c -0.8122,1.5182 -1.58,3.0536 -2.3027,4.6048 -0.0611,0.1315 -0.122,0.263 -0.1825,0.3946 0,0 0,0 0,0 -1.3113,2.8214 -2.4823,5.6894 -3.5096,8.5962 -1.1023,3.0785 -2.0547,6.195 -2.8549,9.3415 -0.4398,1.7344 -0.8401,3.4759 -1.2008,5.2237 -0.3607,1.7477 -0.6817,3.5014 -0.9628,5.2598 -0.006,0.041 -0.0128,0.082 -0.0192,0.1228 -0.5703,3.5728 -0.9787,7.1632 -1.2242,10.7631 -0.2665,3.6981 -0.371,7.4034 -0.3132,11.1081 0.0413,1.872 0.1088,3.7435 0.2026,5.614 0.0671,1.3408 0.1478,2.6811 0.242,4.0207 0.0434,0.5833 0.0831,1.1667 0.119,1.7504 0.0376,0.6095 0.071,1.2191 0.1004,1.8289 0.0226,0.6894 0.0205,1.3792 -0.006,2.0684 -0.0281,0.8792 -0.057,1.7583 -0.0867,2.6374 -0.0278,0.7921 -0.0571,1.5841 -0.088,2.376 -5.2805,1.7789 -10.5778,3.5207 -15.8915,5.2255 -5.3242,1.68 -10.6644,3.3227 -16.0199,4.928 -9.536,2.7282 -19.099,5.3864 -28.6881,7.9741 -4.8268,1.3026 -9.673,2.5514 -14.5376,3.746 0,0 0,0 0,0 -3.6663,-5.1869 -6.8538,-10.612 -9.5332,-16.2257 -3.1091,-6.5303 -5.3501,-13.3405 -6.6804,-20.3016 -1.2194,-6.404 -1.5751,-12.9073 -1.0601,-19.3811 0.519,-6.4737 1.9046,-12.8745 4.1295,-19.0763 2.4225,-6.7402 5.7232,-13.2245 9.8396,-19.3301 3.291,-4.8705 6.9904,-9.5293 11.0689,-13.9396 6.7625,0.64 13.5512,1.0558 20.351,1.2464 5.3322,0.1617 10.6683,0.2077 16.0031,0.1382 5.8121,-0.066 11.6207,-0.2785 17.4181,-0.6385 11.7553,-0.7514 23.4393,-2.1736 34.9743,-4.2571 -0.3418,0.4337 -0.6779,0.8706 -1.0083,1.3106 -2.0647,2.7069 -3.9704,5.5005 -5.7102,8.3705 -0.8997,1.4815 -1.7561,2.982 -2.5683,4.5003" /></g></g><g
               id="g152"><g
                 clip-path="url(#clipPath158)"
                 id="g154"><path
                   id="path160"
                   style="fill:#f6ddb8;fill-opacity:1;fill-rule:nonzero;stroke:none"
                   d="m 1305.1513,2824.6218 c 0.048,-0.2954 0.096,-0.5909 0.1443,-0.8862 0.046,-0.2675 0.092,-0.535 0.1391,-0.8025 0.7135,-4.1624 1.5339,-8.3108 2.4606,-12.4422 l -2.6828,10.4593 c -0.016,-1.6065 -0.015,-3.2132 0,-4.8198 l 0.01,-2.0858 c -0.01,-1.8775 -0.089,-3.7542 -0.2486,-5.6267 -0.07,-0.7266 -0.1557,-1.4522 -0.2557,-2.1763 -0.1025,-0.683 -0.2256,-1.3636 -0.3694,-2.0411 -0.2051,-0.964 -0.4946,-1.9133 -0.8661,-2.8399 -0.2322,-0.5737 -0.5238,-1.1284 -0.8712,-1.6575 -0.266,-0.4015 -0.5853,-0.7752 -0.9517,-1.1135 -0.3384,-0.3087 -0.7339,-0.5673 -1.1705,-0.7654 -0.5826,-0.2505 -1.2283,-0.3738 -1.8798,-0.359 -0.4532,0.018 -0.9027,0.079 -1.34,0.1829 -0.018,0 -0.037,0.01 -0.055,0.014 -0.2654,0.065 -0.5253,0.1456 -0.7779,0.2411 -0.5258,0.1995 -1.0159,0.4621 -1.4555,0.7801 -0.5398,0.389 -1.027,0.8288 -1.4522,1.3111 -0.6385,0.7188 -1.196,1.4879 -1.6651,2.297 -0.6166,1.0842 -1.1663,2.1954 -1.6469,3.3291 -0.3289,0.7809 -0.6266,1.5711 -0.8925,2.3694 -1.1358,3.4603 -2.0392,6.9737 -2.7058,10.5227 -8.1176,-2.3483 -16.3395,-4.4225 -24.6467,-6.2177 -8.7501,-1.9373 -17.6288,-3.4186 -26.5875,-4.4357 -7.2455,-0.8246 -14.5232,-1.4252 -21.8191,-1.8007 -6.7651,-0.3484 -13.5419,-0.5028 -20.3191,-0.4629 -24.0253,0.385 -47.9324,2.9886 -71.3078,7.7659 -4.2446,0.8545 -8.4762,1.756 -12.6936,2.7045 -4.2134,0.9477 -8.4124,1.942 -12.5958,2.9829 -5.9954,1.4918 -11.958,3.0788 -17.8847,4.7603 -1.5325,-3.4931 -3.352,-6.8884 -5.4447,-10.1606 -1.1014,-1.7249 -2.279,-3.4132 -3.5302,-5.0612 -0.072,-0.095 -0.1444,-0.1901 -0.217,-0.2849 -1.8551,-2.5026 -3.991,-4.8436 -6.377,-6.9898 -1.2719,-1.1509 -2.6151,-2.2424 -4.0237,-3.2696 -1.502,-1.0957 -3.0758,-2.1167 -4.7138,-3.0582 -1.2252,-0.7088 -2.5013,-1.3508 -3.8206,-1.9221 -1.3731,-0.5963 -2.7894,-1.1163 -4.2403,-1.5567 -0.9846,-0.3023 -1.9916,-0.5478 -3.0143,-0.7347 -1.4958,-0.2738 -3.0193,-0.421 -4.5486,-0.4393 0.5361,-10.3684 1.1238,-20.7347 1.763,-31.0987 11.7013,-4.4005 23.546,-8.515 35.5197,-12.3382 10.7091,-3.4346 21.5378,-6.588 32.4711,-9.4558 10.391,-2.7114 20.8996,-5.0792 31.5026,-7.0981 10.4204,-2.0056 20.9416,-3.6042 31.5311,-4.7909 20.5698,-2.3183 41.3857,-2.5568 62.0204,-0.7106 9.055,0.8392 18.0405,2.1604 26.9046,3.9557 8.6014,1.7229 17.0902,3.8363 25.4304,6.3312 9.3586,2.7897 18.5697,5.9312 27.6064,9.4156 9.3155,3.6481 18.6034,7.3479 27.8632,11.0991 8.3674,3.3899 16.7762,6.7041 25.2251,9.9419 13.1655,5.0699 26.8284,9.1297 40.8286,12.1318 19.8319,4.1282 40.35,5.2625 60.6354,3.3524 1.6314,-0.1623 3.2616,-0.3328 4.8906,-0.5116 6.4939,4.4722 12.7096,9.2337 18.6216,14.265 8.3625,7.0581 15.9086,14.7945 22.5327,23.1007 5.408,6.776 9.9639,14.0246 13.5912,21.6244 1.1978,2.5157 2.2676,5.0749 3.2065,7.6704 -2.6704,1.4356 -5.3549,2.8518 -8.0532,4.2485 -5.0239,2.5751 -10.1276,5.0338 -15.3055,7.3735 -8.1017,3.6555 -16.5509,6.7134 -25.2564,9.1408 -7.5781,2.124 -15.4107,3.5099 -23.35,4.1314 -4.2426,0.3622 -8.5093,0.4718 -12.7694,0.3279 -11.6521,-0.397 -23.1945,-2.0922 -34.3369,-5.0431 -6.5534,-1.742 -13.0113,-3.738 -19.3538,-5.9821 -6.5313,-2.2868 -12.9561,-4.7913 -19.2599,-7.5077 -15.8779,-6.9223 -31.7101,-13.9216 -47.4958,-20.9975 -6.7583,-2.9816 -13.6442,-5.7456 -20.643,-8.2863" /></g></g><g
               id="g162"><g
                 clip-path="url(#clipPath168)"
                 id="g164"><path
                   id="path170"
                   style="fill:#f2d49e;fill-opacity:1;fill-rule:nonzero;stroke:none"
                   d="m 1429.0284,2982.7134 c 0.306,-1.0967 0.5859,-2.1987 0.8393,-3.3053 0.2291,-0.9906 0.4312,-1.9856 0.6062,-2.9842 0.1846,-0.9972 0.3518,-1.9968 0.5013,-2.9984 0.2885,-1.9248 0.5321,-3.8543 0.7305,-5.7874 0.075,-0.7494 0.1456,-1.4989 0.2128,-2.2488 0.3744,-3.9309 0.6007,-7.8713 0.6785,-11.8148 0.072,-1.507 0.1194,-3.0149 0.1422,-4.5232 0.023,-0.9566 0.028,-1.9134 0.014,-2.8702 -0.01,-1.2993 -0.08,-2.5977 -0.2226,-3.8912 -0.038,-0.3642 -0.084,-0.7278 -0.1366,-1.0906 -0.091,-0.6666 -0.2031,-1.3311 -0.3346,-1.9927 -0.1665,-0.978 -0.4351,-1.9411 -0.8026,-2.8778 -0.2233,-0.6246 -0.5091,-1.2315 -0.8542,-1.8139 -0.088,-0.1567 -0.189,-0.308 -0.3013,-0.453 -0.091,-0.1386 -0.2034,-0.2659 -0.3343,-0.3785 -0.1942,-0.1505 -0.4037,-0.2857 -0.6261,-0.4041 -0.5226,-0.2926 -1.0831,-0.532 -1.6702,-0.7135 -0.7198,-0.2227 -1.4652,-0.379 -2.2235,-0.4664 -0.4219,-0.053 -0.8469,-0.085 -1.273,-0.098 -1.68,-0.076 -3.3617,0.1197 -4.9573,0.5773 -0.1355,0.037 -0.2703,0.076 -0.4045,0.1169 -0.801,0.24 -1.5669,0.5586 -2.2826,0.9495 -0.06,-0.021 -0.1248,-0.026 -0.188,-0.016 -0.1154,0.016 -0.2268,0.049 -0.329,0.097 -0.1701,0.066 -0.3278,0.153 -0.4681,0.2585 0.5034,-4.0543 0.917,-8.1165 1.2405,-12.1843 0.1594,-1.9163 0.2957,-3.834 0.4087,-5.7527 0.068,-1.1174 0.1232,-2.2354 0.1643,-3.3538 3.6267,1.4084 7.2319,2.8574 10.8145,4.3467 14.9349,6.201 29.8401,12.4546 44.7153,18.7604 7.6403,3.2335 15.3105,6.4147 23.0099,9.5433 -5.3805,4.417 -11.0724,8.5459 -17.0436,12.3635 -5.5694,3.5927 -11.3214,6.9721 -17.2392,10.1284 -6.6429,3.5432 -13.4568,6.8447 -20.4236,9.8957 -3.9593,1.7339 -7.9589,3.3991 -11.9965,4.9945 l 0.014,-0.01 c 0.01,0 0.013,-0.01 0.02,-0.01" /></g></g><g
               id="g172"><g
                 clip-path="url(#clipPath178)"
                 id="g174"><path
                   id="path180"
                   style="fill:#f2d49e;fill-opacity:1;fill-rule:nonzero;stroke:none"
                   d="m 1416.9469,2980.3969 c -0.01,0.064 -0.02,0.1287 -0.03,0.193 -0.1402,0.9625 -0.2657,1.9265 -0.3764,2.8918 -0.095,0.8965 -0.159,1.7953 -0.1922,2.695 -0.025,0.4283 -0.035,0.8571 -0.028,1.2859 -1.8198,0.6425 -3.6454,1.273 -5.4765,1.8915 0.181,-0.8352 0.3546,-1.6715 0.521,-2.5089 0.6682,-3.3585 1.2518,-6.729 1.7505,-10.1091 0.1195,-0.8429 0.2331,-1.6864 0.3408,-2.5305 0.3063,-2.4968 0.5664,-4.9977 0.7801,-7.5016 0.3185,-3.7042 0.5981,-7.4108 0.8389,-11.1192 0.1457,-2.2096 0.2822,-4.4195 0.4094,-6.6298 0.1281,-2.2103 0.2461,-4.4211 0.3539,-6.6322 0.3588,0.2528 0.7144,0.5088 1.0668,0.768 0.2043,0.155 0.4059,0.3127 0.6046,0.4729 0.1793,0.1509 0.3526,0.3069 0.5196,0.4678 0.2254,0.2202 0.4276,0.457 0.6042,0.7077 0.3445,0.4994 0.6517,1.017 0.9197,1.5497 0.1673,0.3406 0.3219,0.6857 0.4635,1.0347 0.3355,0.865 0.6136,1.7456 0.8329,2.6376 0.1324,0.5427 0.244,1.0891 0.3345,1.6382 0.4633,2.8849 0.5384,5.8059 0.224,8.7056 -0.035,0.2381 -0.074,0.4757 -0.1173,0.7127 -0.1009,0.5117 -0.2144,1.0215 -0.3406,1.5291 -0.4945,1.9416 -0.9767,3.8854 -1.4464,5.8315 -0.3106,1.2616 -0.6155,2.5242 -0.9148,3.7878 -0.2163,0.921 -0.4226,1.8436 -0.6188,2.7679 -0.4072,1.8113 -0.7483,3.6332 -1.0227,5.4629" /></g></g><g
               id="g182"><g
                 clip-path="url(#clipPath188)"
                 id="g184"><path
                   id="path190"
                   style="fill:#f2d49e;fill-opacity:1;fill-rule:nonzero;stroke:none"
                   d="m 1391.3717,2988.0213 c -0.1567,-2.1838 -0.3393,-4.3663 -0.5476,-6.547 l -0.046,-0.5647 c -0.02,-0.2265 -0.034,-0.4532 -0.041,-0.6802 -0.01,-0.2402 -0.01,-0.4805 0,-0.7208 0.02,-0.4326 0.051,-0.8647 0.093,-1.2962 0.086,-0.7799 0.1992,-1.5575 0.3384,-2.3318 0.3025,-1.5695 0.753,-3.1153 1.3473,-4.6223 0.1603,-0.3855 0.3341,-0.7668 0.521,-1.1435 0.1086,-0.2197 0.2236,-0.4371 0.3451,-0.6518 0.3339,-0.5804 0.7122,-1.1413 1.1322,-1.679 0.1505,-0.1835 0.3086,-0.3622 0.474,-0.5359 0.04,-0.041 0.081,-0.082 0.1231,-0.1226 0.078,-0.074 0.1581,-0.1457 0.2405,-0.2158 0.1182,-0.099 0.2418,-0.1931 0.3706,-0.2819 0.3059,-0.2104 0.6252,-0.4061 0.9565,-0.5861 l 1.053,-0.5698 c -0.05,1.4772 -0.1089,2.9542 -0.178,4.4309 l -0.097,1.7014 c -0.4067,5.3079 -0.6196,10.6254 -0.6383,15.9448 -0.033,2.0746 0.027,4.1497 0.1819,6.2203 -1.7512,0.5259 -3.5069,1.0409 -5.2669,1.5449 0,-0.9942 -0.029,-1.9884 -0.083,-2.9816 -0.043,-1.0058 -0.1013,-2.0112 -0.175,-3.0157 -0.033,-0.4319 -0.067,-0.8638 -0.1007,-1.2956" /></g></g><g
               id="g192"><g
                 clip-path="url(#clipPath198)"
                 id="g194"><path
                   id="path200"
                   style="fill:#f2d49e;fill-opacity:1;fill-rule:nonzero;stroke:none"
                   d="m 1242.9022,2883.9221 c -1.171,1.4928 -2.2566,3.0335 -3.2531,4.6167 -2.2116,3.4983 -4.0486,7.1614 -5.4883,10.9446 -0.735,1.9078 -1.38,3.8403 -1.9334,5.7927 -0.3959,1.3872 -0.747,2.7835 -1.0531,4.1874 -0.737,3.2712 -1.2501,6.5766 -1.5367,9.8993 -0.052,0.5581 -0.1146,1.1155 -0.1873,1.6719 -0.057,0.376 -0.1235,0.7509 -0.1999,1.1243 l -0.8478,4.0332 c -0.083,0.3925 -0.1612,0.7859 -0.2339,1.1799 v 0 c -0.2285,1.0931 -0.3832,2.1966 -0.4632,3.305 -0.049,0.554 -0.071,1.1095 -0.064,1.665 0,0.5281 0.028,1.056 0.095,1.5809 0,0 0,0 0,0 0.048,0.4153 0.1234,0.8279 0.227,1.2356 0,0 0,0 0,0 0.1677,0.7758 0.4778,1.5238 0.9185,2.2162 0.2197,0.3481 0.4727,0.6799 0.7564,0.992 0.5553,0.596 1.2319,1.1007 1.997,1.4898 0.5738,0.306 1.1888,0.5509 1.8316,0.7294 0.6804,0.1876 1.3962,0.2625 2.1091,0.2207 0.7113,-0.05 1.4029,-0.2254 2.0318,-0.5147 0.5288,-0.2405 1.02,-0.5376 1.4618,-0.8841 0.5409,-0.4207 1.0322,-0.8862 1.4666,-1.3897 0.3124,-0.3481 0.6019,-0.711 0.8671,-1.0869 0.3057,-0.4181 0.5893,-0.8478 0.85,-1.2878 0.3265,-0.5334 0.6287,-1.0774 0.9061,-1.6308 0.2961,-0.576 0.5716,-1.1596 0.826,-1.7501 0.3387,-0.7627 0.649,-1.5345 0.9306,-2.3142 0.6428,-1.7411 1.2081,-3.5025 1.6947,-5.2805 0.2795,-0.9812 0.5376,-1.9668 0.7743,-2.9563 0.646,-2.6626 1.2211,-5.3376 1.7248,-8.0227 l 1.1375,-6.0122 c 0.2049,-1.1242 0.4686,-2.24 0.7901,-3.344 0.4642,-1.681 0.938,-3.3601 1.4214,-5.0372 0.5258,-1.7448 1.0844,-3.4822 1.6756,-5.2115 0.5009,-1.3895 1.0917,-2.7539 1.7697,-4.0869 0.3186,-0.6002 0.6598,-1.1914 1.0231,-1.7727 0.3587,-0.5543 0.7465,-1.0943 1.1622,-1.6185 0.3818,-0.4752 0.8014,-0.9272 1.2557,-1.353 0.452,-0.4234 0.9373,-0.8197 1.4526,-1.186 0,0 0,0 0,0 0.5817,-0.4044 1.2075,-0.7599 1.8686,-1.0615 1.0829,-0.4939 2.2498,-0.8382 3.4577,-1.0203 0.6482,-0.099 1.3028,-0.1645 1.9601,-0.1962 0.6574,-0.031 1.3165,-0.027 1.9733,0.011 l 0.5552,0.034 c -1.653,5.7468 -3.1916,11.5173 -4.615,17.3092 -0.8478,3.3768 -1.6542,6.7611 -2.4191,10.1525 -0.6948,3.0861 -1.3313,6.1817 -1.9092,9.2855 -0.7468,3.9432 -1.3282,7.9081 -1.743,11.8871 -0.1175,1.212 -0.213,2.4255 -0.2862,3.64 -0.078,1.2146 -0.1145,2.4308 -0.1092,3.6472 -0.01,1.5708 0.072,3.141 0.2378,4.7054 0.1391,1.3259 0.383,2.6423 0.7301,3.9399 0.2777,1.0323 0.6699,2.0394 1.1714,3.0076 0.3695,0.7048 0.8339,1.37 1.3837,1.9822 0.6848,0.759 1.5521,1.3826 2.543,1.8282 0.5732,0.2495 1.1823,0.433 1.8114,0.5458 2.0506,-0.1727 4.0264,-0.7518 5.7715,-1.6916 1.24,-0.6593 2.3807,-1.4471 3.396,-2.3458 1.2179,-1.0693 2.3123,-2.237 3.2682,-3.487 1.146,-1.4881 2.1671,-3.0443 3.0555,-4.6568 1.025,-1.8602 1.9418,-3.7629 2.747,-5.7011 0.4588,-1.078 0.883,-2.1667 1.272,-3.2648 0.7679,-2.1188 1.4615,-4.2568 2.0797,-6.4112 0.2975,-1.0402 0.584,-2.0827 0.8593,-3.1274 0,0 0,0 0,0 0.3423,-1.3045 0.6653,-2.6126 0.969,-3.9241 0.7747,-3.2761 1.4499,-6.569 2.0251,-9.8753 0.2586,-1.3966 0.5107,-2.7941 0.7562,-4.1925 0.3223,-1.8109 0.6409,-3.6223 0.956,-5.4342 0.3153,-1.8118 0.6267,-3.6242 0.9343,-5.437 0.7827,-3.8015 1.4815,-7.6153 2.0958,-11.4395 2.1325,0.2495 4.2633,0.5097 6.3923,0.7807 2.1277,0.278 4.2535,0.5668 6.3773,0.8663 0,0 0,0 0,0 0,0 0,0 0,0 0,1.1026 -0.056,2.2046 -0.178,3.3023 -0.1771,1.5163 -0.4068,3.0279 -0.6887,4.5325 -0.1641,0.8681 -0.3441,1.734 -0.5399,2.5972 -0.2299,1.0261 -0.4632,2.0517 -0.6997,3.0766 -0.3789,1.6314 -0.7698,3.2607 -1.1727,4.8878 l -2.6228,8.1672 c -0.9014,2.7002 -1.7186,5.4206 -2.4508,8.1582 -0.5768,2.1069 -1.0816,4.2279 -1.5137,6.3602 -0.4141,1.9091 -0.6991,3.8371 -0.8538,5.7744 -0.057,0.6816 -0.095,1.3643 -0.1146,2.0474 -0.06,1.1899 6e-4,2.3819 0.1807,3.5629 0.071,0.4812 0.1644,0.9599 0.2791,1.435 0.1845,0.7509 0.4654,1.482 0.8375,2.1799 0.2795,0.5624 0.673,1.0779 1.1621,1.5225 0.8169,0.778 1.9074,1.3062 3.1058,1.5044 0.65,0.1115 1.3139,0.1516 1.9758,0.1192 0.3305,-0.013 0.66,-0.04 0.9873,-0.081 0.3451,-0.044 0.6873,-0.1032 1.0249,-0.1785 1.1513,-0.271 2.2179,-0.7586 3.1222,-1.4273 0.6577,-0.4819 1.2459,-1.0293 1.7523,-1.6308 0.6199,-0.7314 1.1592,-1.5106 1.6109,-2.3277 0.4599,-0.8283 0.8693,-1.6766 1.2266,-2.5413 0.3907,-0.9179 0.7327,-1.8506 1.0251,-2.795 0.1381,-0.4166 0.2704,-0.8346 0.3968,-1.2539 0.049,-0.1591 0.097,-0.3184 0.1442,-0.4778 l 1.5653,-5.0104 0.8259,-2.0181 c 0.3786,-0.9029 0.7462,-1.809 1.1028,-2.7184 0.3567,-0.9094 0.7024,-1.8219 1.037,-2.7374 10e-5,-2e-4 10e-5,-3e-4 2e-4,-5e-4 1.3973,-3.8327 2.4691,-7.7473 3.2069,-11.7129 0.071,-0.3704 0.1398,-0.7411 0.2057,-1.1122 0.1831,-1.0481 0.3425,-2.0991 0.4779,-3.1525 0.1357,-1.0534 0.2472,-2.1089 0.3345,-3.1661 0.1561,-1.9051 0.2206,-3.815 0.1934,-5.7247 -0.027,-1.911 -0.1459,-3.8202 -0.356,-5.7227 -0.028,-0.2556 -0.059,-0.5109 -0.091,-0.7661 -9e-4,-0.01 0,-0.014 0,-0.021 6.5574,1.2991 13.1008,2.6495 19.6295,4.051 13.0504,2.7648 25.8916,6.211 38.452,10.3194 6.3457,2.0557 12.6687,4.1625 18.9682,6.3203 0,0 0,0 0,0 -0.3239,1.0412 -0.6205,2.0886 -0.8895,3.1412 -0.2662,1.0232 -0.5108,2.0503 -0.7335,3.0811 -0.229,1.0297 -0.4391,2.0625 -0.6303,3.0979 -0.5267,2.824 -0.9714,5.6588 -1.3336,8.5018 -0.7756,5.7246 -1.3084,11.4716 -1.5972,17.2294 -0.3104,5.1809 -0.5605,10.3642 -0.7502,15.5493 -0.6604,-0.4381 -1.3845,-0.8007 -2.1539,-1.0785 -1.1695,-0.4327 -2.4135,-0.6984 -3.683,-0.7868 -0.7557,-0.055 -1.5165,-0.034 -2.2663,0.065 -0.6071,0.069 -1.1984,0.2167 -1.7538,0.438 -0.2283,0.084 -0.4471,0.1855 -0.6538,0.3036 -0.1272,0.08 -0.2403,0.175 -0.3355,0.2826 -0.1191,0.1145 -0.228,0.2365 -0.3258,0.365 -0.4395,0.5535 -0.8142,1.1428 -1.1186,1.7595 -0.4684,0.9319 -0.8571,1.8918 -1.1629,2.8722 -0.2197,0.6614 -0.4097,1.3299 -0.5696,2.0039 -0.1776,0.7085 -0.3313,1.4213 -0.461,2.1375 -0.083,0.4413 -0.1592,0.8835 -0.2297,1.3264 -0.071,0.4429 -0.1354,0.8865 -0.1933,1.3307 -0.4973,3.3621 -0.8958,6.7344 -1.195,10.1138 -0.1514,1.6428 -0.2734,3.2876 -0.366,4.9337 -0.06,1.104 -0.1058,2.2086 -0.1361,3.3135 -0.1024,2.8806 0,5.7639 0.3003,8.6341 0.063,0.543 0.1363,1.0851 0.2202,1.626 -17.8871,4.7027 -36.0828,8.4935 -54.4917,11.3525 -29.9546,-6.5923 -61.0064,-8.7218 -91.8012,-6.2958 -23.1,1.8187 -45.9493,5.4984 -68.2457,10.9904 l -4.6153,1.1236 c -21.3475,-1.6241 -42.5879,-4.1561 -63.6428,-7.5867 -24.1104,-3.9218 -47.9065,-9.1522 -71.2447,-15.6598 -20.8267,-5.8026 -41.1604,-12.835 -60.8552,-21.0466 -8.6711,-3.636 -17.1798,-7.5505 -25.508,-11.7352 -6.6512,-3.3406 -13.1644,-6.8797 -19.5274,-10.6107 5.6329,-1.6444 11.2557,-3.3142 16.8681,-5.0093 l 56.2554,-16.9604 c 2.2405,2.0904 4.9957,3.7264 8.0653,4.7891 1.6178,0.1142 3.2457,-0.054 4.7854,-0.4951 0.7002,-0.1995 1.3777,-0.4535 2.0239,-0.759 0.68,-0.3126 1.3283,-0.6736 1.9382,-1.079 0.6199,-0.4026 1.2047,-0.8435 1.7497,-1.3192 0.2948,-0.2488 0.5809,-0.5051 0.8579,-0.7686 0.277,-0.2635 0.5447,-0.534 0.8029,-0.8112 5e-4,-6e-4 10e-4,0 0,0 0,0 0,0 0,0 0.6608,-0.6929 1.2723,-1.4194 1.831,-2.1755 0,0 0,0 0,0 0.5642,-0.7364 1.0909,-1.4933 1.5787,-2.2687 0.5617,-0.877 1.0815,-1.7733 1.5582,-2.6865 v 0 c 0,0 0,0 0,0 l 17.6345,-5.2952 c 5.0071,-1.483 10.0204,-2.9504 15.0399,-4.4023 0.1477,1.0734 0.3474,2.141 0.5986,3.2002 0.087,0.3924 0.184,0.7831 0.2908,1.1719 0.1071,0.3897 0.224,0.7775 0.3507,1.1629 0.2241,0.7107 0.4901,1.4111 0.797,2.0987 0.2227,0.5201 0.4768,1.0299 0.7611,1.5274 0.255,0.4459 0.534,0.8814 0.8361,1.3051 0.2679,0.3788 0.5642,0.7423 0.8872,1.088 0.4961,0.5603 1.0773,1.0612 1.7282,1.4894 0.6767,0.4533 1.4277,0.8183 2.2287,1.0833 1.0869,0.3449 2.2385,0.5152 3.3973,0.5023 0.5741,0 1.1472,-0.039 1.7136,-0.1196 1.3133,-0.1411 2.5934,-0.455 3.7954,-0.9304 0.6918,-0.2696 1.3531,-0.5935 1.9754,-0.9676 0.072,-0.044 0.1434,-0.089 0.2143,-0.1347 1.1819,-0.7382 2.2089,-1.6435 3.0371,-2.6771 0.4511,-0.5548 0.8654,-1.131 1.2408,-1.7259 0.3754,-0.5948 0.7114,-1.2074 1.0063,-1.8348 10e-5,-10e-5 10e-5,-3e-4 2e-4,-4e-4 0,0 0,0 0,0 0.4002,-0.8121 0.7405,-1.645 1.019,-2.4937 0.3173,-0.8924 0.5891,-1.7962 0.8148,-2.7089 0.1487,-0.6171 0.2894,-1.2356 0.4222,-1.8554 0.3758,-1.6974 0.6624,-3.4085 0.8587,-5.1281 v 0 c 0.016,-0.1206 0.031,-0.2413 0.046,-0.3619 l 0.1805,-1.411 c 4.7806,-1.2189 9.5789,-2.3859 14.3938,-3.5009 8.232,-2.0497 16.5192,-3.9329 24.8546,-5.6478 9.1541,-1.8834 18.3634,-3.5633 27.6188,-5.038 15.259,-2.3859 30.6094,-4.3188 46.024,-5.7953 0.7295,-0.07 1.4592,-0.1387 2.189,-0.2066 2.641,-0.2494 5.2851,-0.4755 7.9316,-0.6783 3.0488,-0.2331 6.1008,-0.4345 9.1553,-0.6042 2.2544,-0.1185 4.5102,-0.2181 6.7669,-0.2989 1.3304,-0.047 2.6611,-0.087 3.992,-0.12 0.4809,-0.013 0.9619,-0.026 1.4429,-0.038 0,0 0,0 0,0 7.0846,-0.1785 14.1727,-0.2356 21.2599,-0.1712 -1.3782,1.4259 -2.6725,2.9101 -3.8779,4.4469" /></g></g><g
               id="g202"><g
                 clip-path="url(#clipPath208)"
                 id="g204"><path
                   id="path210"
                   style="fill:#ecc486;fill-opacity:1;fill-rule:nonzero;stroke:none"
                   d="m 1056.8888,2835.3401 c 0.068,0.5908 0.1267,1.1825 0.1759,1.7747 0.05,0.6137 0.088,1.228 0.1152,1.8428 0.027,0.615 0.05,1.2302 0.069,1.8455 0.023,1.3485 0.027,2.6971 0.013,4.0457 -0.026,1.3485 -0.071,2.6966 -0.1341,4.0442 -0.1561,3.2127 -0.3325,6.4247 -0.5292,9.6358 -0.051,0.9503 -0.1199,1.8998 -0.2078,2.8481 -0.1002,0.9474 -0.2189,1.8932 -0.356,2.8372 l -1.4679,10.1057 c -0.6651,4.5271 -1.2101,9.0666 -1.6347,13.615 -0.3128,3.3753 -0.5049,6.7581 -0.5761,10.1436 -0.018,1.3673 -0.01,2.7349 0.022,4.102 0.025,1.3676 0.1,2.7341 0.2252,4.0976 0.081,1.0083 0.1969,2.0143 0.3471,3.0168 -4.7702,1.3674 -9.531,2.7589 -14.2819,4.1747 l -18.3925,5.5228 c 0.3691,-0.683 0.7219,-1.3724 1.0582,-2.0678 0.3528,-0.7183 0.6832,-1.4445 0.9909,-2.1778 0.5944,-1.3708 1.144,-2.7556 1.648,-4.1527 0.2604,-0.7052 0.5123,-1.4127 0.7559,-2.1223 0.2448,-0.7133 0.4741,-1.4305 0.6878,-2.1511 0.2575,-0.8015 0.5027,-1.6059 0.7355,-2.4129 0.4088,-1.4003 0.7882,-2.8068 1.1379,-4.2189 0.2827,-1.111 0.5529,-2.2243 0.8105,-3.3399 0.2606,-1.1153 0.5114,-2.2323 0.7524,-3.3509 1.1144,-5.2595 2.0593,-10.5445 2.8337,-15.8487 0.7751,-5.2219 1.4515,-10.4542 2.029,-15.6949 0.8928,-8.1292 1.6449,-16.2693 2.256,-24.4176 4.3272,-1.4347 8.6612,-2.8541 13.0021,-4.2581 2.3534,-0.7614 4.7116,-1.5116 7.0747,-2.2507 0.1188,0.4823 0.2287,0.9661 0.3296,1.4514 0.058,0.2878 0.1122,0.5762 0.162,0.8652 0.038,0.2226 0.074,0.4456 0.1074,0.6688 10e-5,0 3e-4,0 4e-4,0 0.09,0.6068 0.1702,1.2147 0.2403,1.8235" /></g></g><g
               id="g212"><g
                 clip-path="url(#clipPath218)"
                 id="g214"><path
                   id="path220"
                   style="fill:#ecc486;fill-opacity:1;fill-rule:nonzero;stroke:none"
                   d="m 934.0697,2884.4841 c 0.0901,0.679 0.1984,1.3562 0.3249,2.0309 0.1408,0.7587 0.3232,1.5112 0.5465,2.2552 0.217,0.7229 0.4725,1.437 0.7655,2.1399 0.4839,1.1722 1.1289,2.2908 1.9214,3.3321 0.6166,0.818 1.351,1.5661 2.1859,2.2264 0.6319,0.4996 1.3179,0.9464 2.0487,1.3342 0.9867,0.5082 2.0337,0.9247 3.1234,1.2425 0.494,0.1499 0.998,0.2743 1.5093,0.3724 0.562,0.1078 1.1317,0.1836 1.7054,0.227 0.7718,0.062 1.5496,0.042 2.3159,-0.058 0.4798,-0.063 0.9533,-0.1571 1.4164,-0.2819 1.2775,-0.3617 2.4587,-0.9372 3.4752,-1.6932 0.4568,-0.3419 0.8893,-0.7069 1.2952,-1.0931 0.4059,-0.3862 0.7846,-0.7928 1.1341,-1.2177 0.0146,-0.018 0.0292,-0.036 0.0438,-0.054 0.0141,-0.017 0.0282,-0.035 0.0423,-0.052 0.8389,-1.0392 1.5685,-2.1402 2.1803,-3.2902 0.9672,-1.8306 1.7686,-3.7224 2.397,-5.6586 0.8465,-2.6125 1.525,-5.2629 2.0325,-7.9393 0.3848,-1.9178 0.7005,-3.8452 0.9465,-5.7797 0.2554,-1.9332 0.4754,-3.8698 0.6599,-5.8089 0.1797,-1.8841 0.3262,-3.7704 0.4395,-5.6583 6.4704,-2.2552 12.9386,-4.5148 19.4048,-6.7787 -0.0927,0.6377 -0.1831,1.2756 -0.2714,1.9137 -0.0178,0.1273 -0.0357,0.2545 -0.0535,0.3818 -0.3717,2.7194 -0.7031,5.4427 -0.9941,8.1692 -0.2913,2.7266 -0.542,5.4563 -0.7521,8.1883 -0.2749,3.5817 -0.448,7.1686 -0.5192,10.7576 -0.0289,1.9224 -0.027,3.8451 0.006,5.7675 0.0224,1.9227 0.1064,3.8446 0.252,5.7634 0.1061,1.742 0.2734,3.4809 0.5016,5.2143 0.2099,1.6929 0.4711,3.3808 0.7834,5.0621 0.2494,1.3569 0.5505,2.7064 0.9029,4.0464 0.4138,1.5742 0.898,3.1342 1.4513,4.6766 0.4033,1.1371 0.8672,2.2578 1.3902,3.3584 0.5893,1.2403 1.2529,2.4537 1.988,3.6354 0,0 0,0 0,0 0.5943,0.962 1.2597,1.8904 1.9921,2.7797 0.7422,0.9014 1.5515,1.7608 2.4228,2.5727 -18.7556,5.6443 -37.5073,11.2978 -56.2554,16.9604 -5.6248,1.6756 -11.2534,3.342 -16.8857,4.999 -0.842,-0.4938 -1.6813,-0.9909 -2.518,-1.4914 -6.4178,-3.8389 -12.6443,-7.9079 -18.663,-12.1963 -5.3619,-3.8201 -10.5241,-7.8419 -15.4714,-12.0536 -8.3625,-7.0582 -15.9086,-14.7945 -22.5327,-23.1007 -1.4104,-1.7671 -2.7636,-3.5674 -4.058,-5.3987 4.8646,-1.1946 9.7108,-2.4434 14.5376,-3.746 9.5891,-2.5877 19.1521,-5.2459 28.6881,-7.9741 5.3555,-1.6053 10.6957,-3.248 16.0199,-4.928 5.3137,-1.7048 10.611,-3.4466 15.8915,-5.2255 -0.0323,0.8121 -0.0599,1.6243 -0.0828,2.4366 -0.0268,0.7251 -0.0434,1.4505 -0.0499,2.1759 -0.0237,1.5147 0.007,3.0297 0.0919,4.5427 0.0537,0.9744 0.1451,1.9469 0.2739,2.9161" /></g></g><g
               id="g222"><g
                 clip-path="url(#clipPath228)"
                 id="g224"><path
                   id="path230"
                   style="fill:#ecc486;fill-opacity:1;fill-rule:nonzero;stroke:none"
                   d="m 1301.4409,2871.6043 c 0.6989,0.2643 1.3806,0.561 2.0419,0.8889 0,0 0,0 0,0 1.0095,0.5051 1.9401,1.1184 2.7694,1.8249 0.3825,0.326 0.7424,0.6709 1.0778,1.033 0.1738,0.1904 0.3398,0.3859 0.4979,0.5861 0.091,0.1163 0.1786,0.2344 0.2632,0.3541 0.2138,0.2979 0.4124,0.6036 0.5952,0.9163 0.3485,0.6251 0.6409,1.2721 0.8747,1.9354 0.1834,0.5521 0.3364,1.1113 0.4584,1.6758 0.056,0.2817 0.1042,0.5643 0.1462,0.8477 0.042,0.2835 0.077,0.5677 0.1057,0.8525 0.027,0.3169 0.048,0.634 0.065,0.9514 0.014,0.3175 0.023,0.6351 0.027,0.9528 -2.1238,-0.2995 -4.2496,-0.5883 -6.3773,-0.8663 -2.129,-0.271 -4.2598,-0.5312 -6.3923,-0.7807 0.1154,-0.7183 0.2278,-1.4369 0.3373,-2.1559 0.25,-1.6156 0.4879,-3.2326 0.7136,-4.8508 0.2268,-1.6182 0.447,-3.237 0.6606,-4.8564 0.7257,0.1971 1.4385,0.4278 2.1351,0.6912" /></g></g><g
               id="g232"><g
                 clip-path="url(#clipPath238)"
                 id="g234"><path
                   id="path240"
                   style="fill:#ecc486;fill-opacity:1;fill-rule:nonzero;stroke:none"
                   d="m 1286.6155,2818.5126 c -0.1723,0.8728 -0.3337,1.7471 -0.484,2.6228 -0.3851,2.2566 -0.7636,4.5141 -1.1356,6.7725 -0.2035,1.2879 -0.4492,2.5707 -0.7369,3.8467 -0.6015,2.5726 -1.224,5.1416 -1.8673,7.7067 -0.6573,2.5626 -1.3354,5.1211 -2.0344,7.6755 -1.8929,6.9048 -3.825,13.8016 -5.7962,20.6902 -0.8994,-0.214 -1.8215,-0.3501 -2.7526,-0.4063 -0.6026,-0.037 -1.2074,-0.04 -1.8105,-0.01 -0.9159,0.043 -1.8276,0.1367 -2.7296,0.2799 -0.8275,0.1305 -1.6452,0.3034 -2.4486,0.518 -0.1284,0.034 -0.2564,0.069 -0.384,0.1055 -3.0211,0.8393 -5.8722,2.0755 -8.4517,3.6645 -0.8862,0.5395 -1.7424,1.1145 -2.5659,1.7228 -2.4055,1.7539 -4.6267,3.6857 -6.6381,5.7732 -7.5685,-0.069 -15.1378,8e-4 -22.7028,0.2093 -4.0023,0.099 -8.0021,0.2616 -11.9975,0.4866 -5.2919,0.3118 -10.5758,0.7169 -15.8483,1.2148 -16.1513,1.501 -32.234,3.5031 -48.2165,6.0024 -17.6845,2.8179 -35.1958,6.3841 -52.4699,10.6853 -4.8149,1.115 -9.6132,2.282 -14.3938,3.5009 l 0.6912,-5.5563 c 0.028,-0.2322 0.06,-0.4641 0.094,-0.6957 0.062,-0.4197 0.1338,-0.8382 0.2152,-1.2553 0.1857,-0.9052 0.3875,-1.8078 0.6056,-2.7076 0.2073,-0.877 0.409,-1.755 0.6051,-2.6339 0.275,-1.2333 0.5389,-2.4684 0.7916,-3.7051 0.1748,-0.8737 0.339,-1.7489 0.4927,-2.6255 0.1642,-0.936 0.3163,-1.8734 0.4564,-2.8122 0.1144,-0.7666 0.2207,-1.5341 0.319,-2.3023 0.3613,-2.7487 0.635,-5.5054 0.8208,-8.267 0.03,-0.4483 0.058,-0.8968 0.084,-1.3453 0.1821,-3.3624 0.206,-6.7297 0.072,-10.0938 -0.1166,-3.2626 -0.4018,-6.5192 -0.855,-9.7601 -0.4569,-3.2683 -1.084,-6.5175 -1.8794,-9.7377 -1.1884,-4.8603 -2.8279,-9.6313 -4.9026,-14.2675 5.936,-1.6566 11.8981,-3.2435 17.8847,-4.7603 8.3697,-2.0825 16.8009,-3.9786 25.2851,-5.6865 9.0196,-1.7981 18.1116,-3.3174 27.2584,-4.5551 14.586,-1.9024 29.3027,-2.9753 44.0537,-3.2117 14.0902,-0.082 28.17,0.6739 42.1382,2.2636 l 0.8504,0.1007 c 8.6604,1.0632 17.2509,2.5102 25.7371,4.335 8.3072,1.7952 16.5291,3.8694 24.6467,6.2177" /></g></g><g
               id="g242"><g
                 clip-path="url(#clipPath248)"
                 id="g244"><path
                   id="path250"
                   style="fill:#ebc88e;fill-opacity:1;fill-rule:nonzero;stroke:none"
                   d="m 1322.1723,2871.271 c -0.2542,-0.5104 -0.5173,-1.0176 -0.7895,-1.5211 -0.8859,-1.6538 -1.9336,-3.2401 -3.1318,-4.742 -1.2915,-1.588 -2.7616,-3.0634 -4.389,-4.4051 -0.9487,-0.7861 -1.9667,-1.5081 -3.045,-2.1597 0,0 0,0 -0.01,0 -0.9372,-0.5656 -1.9285,-1.0622 -2.9633,-1.4844 -0.2349,-0.096 -0.4725,-0.187 -0.7126,-0.2731 -0.6782,-0.2433 -1.3749,-0.4466 -2.0853,-0.6084 -1.2762,-0.2926 -2.6004,-0.4 -3.9179,-0.3175 0.9031,-8.1647 1.9106,-16.3206 3.0225,-24.4663 0.3066,-2.2254 0.6389,-4.4482 0.997,-6.6679 0,0 0,-1e-4 0,-1e-4 6.9988,2.5407 13.8847,5.3047 20.643,8.2863 15.7857,7.0759 31.6179,14.0752 47.4958,20.9975 6.298,2.7268 12.7233,5.2315 19.2599,7.5077 6.3425,2.2441 12.8004,4.2401 19.3538,5.9821 11.1424,2.9509 22.6848,4.6461 34.3369,5.0431 4.2601,0.1439 8.5268,0.034 12.7694,-0.3279 7.94,-0.6173 15.7731,-2.0033 23.35,-4.1314 8.7055,-2.4274 17.1547,-5.4853 25.2564,-9.1408 5.1779,-2.3397 10.2816,-4.7984 15.3055,-7.3735 2.6983,-1.3967 5.3828,-2.8129 8.0532,-4.2485 1.4963,4.1365 2.6571,8.357 3.4739,12.6312 2.4503,12.8505 1.3997,26.0133 -3.0694,38.4574 -2.4225,6.7402 -5.7232,13.2245 -9.8396,19.3301 -4.7998,7.1035 -10.464,13.7503 -16.8976,19.829 -2.8726,2.7163 -5.8561,5.3448 -8.9449,7.8805 -7.6994,-3.1286 -15.3696,-6.3098 -23.0099,-9.5433 -14.8752,-6.3058 -29.7804,-12.5594 -44.7153,-18.7604 -3.5826,-1.4893 -7.1878,-2.9383 -10.8145,-4.3467 0.065,-1.4739 0.095,-2.9487 0.091,-4.4236 0.01,-1.7201 -0.044,-3.44 -0.1542,-5.1575 -0.081,-1.2717 -0.2296,-2.5395 -0.4441,-3.7997 -0.069,-0.4002 -0.1532,-0.7984 -0.2521,-1.1941 -0.084,-0.3642 -0.1878,-0.7252 -0.3095,-1.0816 -0.076,-0.2334 -0.1629,-0.464 -0.2613,-0.6911 -0.1252,-0.3294 -0.2929,-0.6458 -0.4999,-0.9432 -0.073,-0.1126 -0.1538,-0.2215 -0.2417,-0.326 -0.069,-0.084 -0.1429,-0.1641 -0.2224,-0.2404 -3e-4,-3e-4 -6e-4,-6e-4 -9e-4,-9e-4 -0.1436,-0.1475 -0.3137,-0.2742 -0.5041,-0.3754 -0.089,-0.048 -0.1822,-0.089 -0.2788,-0.1244 -0.2812,-0.099 -0.5884,-0.1299 -0.8887,-0.09 -0.1014,0.013 -0.2017,0.031 -0.3004,0.055 -0.2402,0.057 -0.4698,0.1421 -0.6821,0.254 -0.1266,0.061 -0.2492,0.1286 -0.3673,0.2015 -0.1383,0.082 -0.2721,0.1704 -0.401,0.2634 -0.3778,0.2604 -0.7255,0.5513 -1.0384,0.8688 -0.133,0.1254 -0.2628,0.2533 -0.3893,0.3835 -0.1364,0.1403 -0.269,0.2833 -0.3978,0.4289 -0.4489,0.4886 -0.8698,0.9958 -1.2611,1.5196 -10e-5,1e-4 -10e-5,1e-4 -2e-4,2e-4 -10e-5,2e-4 -3e-4,4e-4 -4e-4,6e-4 -0.4228,0.5661 -0.8106,1.1508 -1.1617,1.7519 -0.6602,1.0952 -1.2258,2.2306 -1.6921,3.3969 -0.2254,0.519 -0.4346,1.0429 -0.6274,1.5714 -0.3526,0.9329 -0.6734,1.8744 -0.9621,2.8233 -6.2995,-2.1578 -12.6225,-4.2646 -18.9682,-6.3203 -12.5604,-4.1084 -25.4016,-7.5546 -38.452,-10.3194 -6.5287,-1.4015 -13.0721,-2.7519 -19.6295,-4.051 -0.3108,-2.5144 -0.8176,-5.0081 -1.517,-7.4644 -0.2944,-1.0478 -0.6191,-2.0892 -0.9738,-3.1231 -0.4214,-1.2435 -0.9093,-2.4696 -1.4624,-3.6745 -0.2359,-0.5169 -0.481,-1.0307 -0.7351,-1.5412" /></g></g><g
               id="g252"><g
                 clip-path="url(#clipPath258)"
                 id="g254"><path
                   id="path260"
                   style="fill:#e3a268;fill-opacity:1;fill-rule:nonzero;stroke:none"
                   d="m 969.9878,2811.0666 c 0.2011,-1.0657 0.4219,-2.1286 0.6622,-3.1883 0.1215,-0.5313 0.2483,-1.0618 0.3805,-1.5913 0.1362,-0.5253 0.2823,-1.0487 0.4384,-1.57 0.1253,-0.445 0.2596,-0.888 0.403,-1.329 0.1434,-0.4409 0.2959,-0.8797 0.4574,-1.316 10e-4,0 0.003,-0.01 0.004,-0.012 0.3062,-0.8546 0.645,-1.7004 1.0159,-2.5359 0.1992,-0.4417 0.4089,-0.88 0.6288,-1.3144 0.2326,-0.4594 0.4768,-0.9145 0.7323,-1.3649 0.4926,-0.8463 1.0357,-1.6703 1.6269,-2.4688 0.748,-0.986 1.5837,-1.9209 2.4997,-2.7963 0.3092,-0.2864 0.6286,-0.5644 0.9577,-0.8339 0.6925,-0.5716 1.4317,-1.1001 2.212,-1.5813 0.734,-0.449 1.5,-0.8581 2.2937,-1.2248 0.7862,-0.3668 1.5966,-0.694 2.4271,-0.98 0.9987,-0.3439 2.0241,-0.6273 3.0688,-0.8484 2.4822,-0.5168 5.0226,-0.8005 7.5762,-0.846 -0.5538,2.7265 -1.0964,5.4546 -1.6279,8.1844 -0.9394,4.8022 -1.8138,9.6137 -2.6228,14.4334 -0.6082,3.5648 -1.1604,7.1364 -1.6563,10.714 -0.2681,1.8877 -0.5267,3.7763 -0.776,5.6659 -0.9974,6.064 -1.9712,12.1308 -2.9213,18.2003 -0.6254,3.9358 -1.2201,7.8751 -1.7843,11.8176 -6.4662,2.2639 -12.9344,4.5235 -19.4048,6.7787 0.0936,-1.4719 0.1709,-2.9444 0.2322,-4.4176 0.137,-3.0275 0.226,-6.0564 0.267,-9.086 l 0.1628,-11.0621 c 0.0152,-1.0345 0.0506,-2.0686 0.1062,-3.1021 0.069,-1.0328 0.1583,-2.0646 0.2678,-3.0948 0.3428,-3.4885 0.7079,-6.9753 1.0953,-10.4603 0.1659,-1.4664 0.3519,-2.931 0.5581,-4.3936 0.2196,-1.4611 0.4593,-2.92 0.7191,-4.3762" /></g></g><g
               id="g262"><g
                 clip-path="url(#clipPath268)"
                 id="g264"><path
                   id="path270"
                   style="fill:#e3a268;fill-opacity:1;fill-rule:nonzero;stroke:none"
                   d="m 1044.9338,2816.6351 c 0.4546,0.2019 0.8998,0.419 1.3346,0.6508 0,0 0,0 0,0 0.5019,0.2683 0.9897,0.5555 1.462,0.8608 0.619,0.401 1.2097,0.8333 1.769,1.2945 0.4081,0.339 0.8003,0.6918 1.1756,1.0577 0.5043,0.4953 0.9743,1.0155 1.4075,1.5581 0.5976,0.7669 1.1365,1.5663 1.6132,2.3932 0.2431,0.4266 0.4695,0.8601 0.6788,1.2998 0.228,0.4754 0.4378,0.9571 0.629,1.4444 0,0 0,0 0,0 0.1,0.2659 0.1963,0.5328 0.2888,0.8007 0.094,0.273 0.1847,0.547 0.2712,0.822 0.1745,0.5676 0.3364,1.138 0.4856,1.7109 -2.3631,0.7391 -4.7213,1.4893 -7.0747,2.2507 -4.3409,1.404 -8.6749,2.8234 -13.0021,4.2581 0.026,-0.3434 0.051,-0.6869 0.077,-1.0303 0.2709,-3.6644 0.5285,-7.3294 0.773,-10.9952 0.235,-3.5239 0.4578,-7.0484 0.6683,-10.5735 l 0.911,0.1709 c 1.0797,0.205 2.1436,0.4669 3.1858,0.7841 0.966,0.2998 1.9134,0.6419 2.8386,1.025 0.1706,0.07 0.3401,0.1427 0.5083,0.2173" /></g></g><g
               id="g272"><g
                 clip-path="url(#clipPath278)"
                 id="g274"><path
                   id="path280"
                   style="fill:#efb78c;fill-opacity:1;fill-rule:nonzero;stroke:none"
                   d="m 1002.7549,2760.1673 c -2.0755,-0.6673 -4.2665,-1.0321 -6.4823,-1.0792 -1.6685,-0.038 -3.3375,0.057 -4.9856,0.2836 -1.8992,0.2601 -3.7692,0.6581 -5.5899,1.1896 -1.0441,0.3052 -2.0742,0.6448 -3.0878,1.0182 -1.0151,0.3739 -2.013,0.7813 -2.9914,1.2213 -2.2368,1.0001 -4.3944,2.1253 -6.459,3.3683 -1.0269,0.6104 -2.0259,1.2545 -2.9949,1.9309 -0.0863,0.061 -0.1723,0.1212 -0.2582,0.182 -1.2874,0.9123 -2.5319,1.8683 -3.7305,2.8657 -1.357,1.1289 -2.6541,2.3095 -3.8874,3.5384 -1.3496,1.3209 -2.6489,2.6789 -3.896,4.0719 -1.1085,1.224 -2.1696,2.479 -3.1816,3.763 -11.535,2.0835 -23.219,3.5057 -34.9743,4.2571 -5.7974,0.36 -11.606,0.573 -17.4181,0.6385 -5.3348,0.064 -10.6708,0.019 -16.0031,-0.1382 -6.7998,-0.1906 -13.5885,-0.6064 -20.351,-1.2464 1.8663,-2.018 3.8102,-3.9823 5.8287,-5.8894 7.8808,-7.452 16.5843,-14.2316 25.9885,-20.244 5.5694,-3.5927 11.3214,-6.9721 17.2392,-10.1284 6.6429,-3.5432 13.4568,-6.8447 20.4236,-9.8957 7.7782,-3.4063 15.7106,-6.5468 23.7787,-9.4141 8.9146,-3.1697 17.965,-6.0507 27.1319,-8.6369 8.3572,-2.34 16.7885,-4.4802 25.2843,-6.4182 -0.2606,1.3866 -0.5273,2.7723 -0.7999,4.1571 -1.3548,6.7791 -2.7421,13.5534 -4.1619,20.3227 -1.4415,6.766 -2.9155,13.5267 -4.422,20.2822" /></g></g><g
               id="g282"><g
                 clip-path="url(#clipPath288)"
                 id="g284"><path
                   id="path290"
                   style="fill:#efb78c;fill-opacity:1;fill-rule:nonzero;stroke:none"
                   d="m 1040.8737,2754.7502 c 0.2234,-3.6377 0.4787,-7.2739 0.766,-10.9083 0.5003,-6.2311 1.108,-12.4556 1.8228,-18.6714 0.5505,-3.2709 1.0912,-6.5431 1.6221,-9.8165 0.3729,-2.188 0.7298,-4.3779 1.0705,-6.5698 25.5637,-4.1035 51.4205,-6.7255 77.3949,-7.8481 51.6676,-2.2281 103.4607,0.8202 154.2895,9.0809 24.1104,3.9218 47.9065,9.1522 71.2447,15.6598 20.8267,5.8026 41.1604,12.8349 60.8552,21.0466 8.6711,3.636 17.1798,7.5505 25.508,11.7352 7.5379,3.7859 14.898,7.8265 22.063,12.1124 5.3044,3.1729 10.4784,6.5032 15.5128,9.9849 -1.629,0.1788 -3.2592,0.3493 -4.8906,0.5116 -20.2854,1.9101 -40.8035,0.7758 -60.6354,-3.3524 -14.0002,-3.0021 -27.6631,-7.0619 -40.8286,-12.1318 -8.4489,-3.2378 -16.8577,-6.552 -25.2251,-9.9419 -9.2598,-3.7512 -18.5477,-7.451 -27.8632,-11.0991 -9.0367,-3.4844 -18.2478,-6.6259 -27.6064,-9.4156 -8.3402,-2.4949 -16.829,-4.6083 -25.4304,-6.3312 -8.8641,-1.7953 -17.8496,-3.1165 -26.9046,-3.9557 -20.6347,-1.8462 -41.4506,-1.6077 -62.0204,0.7106 -10.5895,1.1867 -21.1107,2.7853 -31.5311,4.7909 -10.603,2.0189 -21.1116,4.3867 -31.5026,7.0981 -10.9333,2.8678 -21.762,6.0212 -32.4711,9.4558 -11.9737,3.8232 -23.8184,7.9377 -35.5197,12.3382 l 0.2797,-4.4832" /></g></g><g
               id="g292"><g
                 clip-path="url(#clipPath298)"
                 id="g294"><path
                   id="path300"
                   style="fill:#a18951;fill-opacity:1;fill-rule:nonzero;stroke:none"
                   d="m 1391.7298,2995.3143 c -0.025,-2.0007 -0.1109,-4.0005 -0.2574,-5.9974 -0.1547,-2.0224 -0.3211,-4.0441 -0.4993,-6.0651 -0.067,-0.7806 -0.1321,-1.5613 -0.1946,-2.3422 -0.068,-0.7805 -0.064,-1.5643 0.011,-2.3442 0.093,-0.9298 0.2244,-1.8565 0.3926,-2.7785 0.2093,-1.0939 0.4931,-2.1764 0.85,-3.2419 0.2742,-0.8272 0.6087,-1.6389 1.0014,-2.4302 0.2877,-0.5823 0.6208,-1.1473 0.997,-1.6912 0.2826,-0.4122 0.6016,-0.8052 0.9543,-1.1755 0.2198,-0.2274 0.4658,-0.4352 0.7342,-0.6203 0.3059,-0.2104 0.6252,-0.4061 0.9565,-0.5861 0.3489,-0.1927 0.7,-0.3827 1.053,-0.5698 -0.05,1.4772 -0.1089,2.9542 -0.178,4.4309 l -0.097,1.7014 c -0.1466,2.4415 -0.2836,4.8834 -0.4112,7.3257 -0.07,1.4357 -0.1269,2.8719 -0.1694,4.3085 -0.033,1.4367 -0.052,2.8736 -0.058,4.3106 -3e-4,1.5649 0.035,3.1298 0.1057,4.6936 0.024,0.508 0.053,1.0158 0.087,1.5234 4.6441,-1.3946 9.2566,-2.8656 13.8349,-4.4119 0.181,-0.8352 0.3546,-1.6715 0.521,-2.5089 0.6682,-3.3585 1.2518,-6.729 1.7505,-10.1091 0.1195,-0.8429 0.2331,-1.6864 0.3408,-2.5305 0.3063,-2.4968 0.5664,-4.9977 0.7801,-7.5016 0.3185,-3.7042 0.5981,-7.4108 0.8389,-11.1192 0.2914,-4.4191 0.5458,-8.8398 0.7633,-13.262 0.3588,0.2528 0.7144,0.5088 1.0668,0.768 0.4,0.2906 0.7756,0.605 1.1242,0.9407 0.2254,0.2202 0.4276,0.457 0.6042,0.7077 0.3518,0.4959 0.6592,1.014 0.9197,1.5497 0.3521,0.7167 0.6476,1.4528 0.8845,2.2036 0.3243,1.0212 0.5736,2.0589 0.7464,3.1069 0.3507,2.1106 0.4821,4.2437 0.3927,6.3742 -0.013,0.3894 -0.03,0.7787 -0.053,1.1679 -0.022,0.3889 -0.061,0.777 -0.1161,1.1635 -0.022,0.1941 -0.052,0.3875 -0.091,0.5796 -0.1072,0.5564 -0.2294,1.1106 -0.3665,1.6622 -0.3743,1.5202 -0.7513,3.0398 -1.1312,4.559 -0.42,1.6849 -0.83,3.3717 -1.23,5.0603 -0.4326,1.8419 -0.8251,3.6907 -1.1773,5.5452 -0.1796,0.9576 -0.3444,1.9173 -0.4946,2.8786 -0.1402,0.9625 -0.2657,1.9265 -0.3764,2.8918 -0.095,0.8965 -0.159,1.7953 -0.1922,2.695 -0.014,0.4268 -0.018,0.8537 -0.013,1.2806 4.2693,-1.5052 8.5016,-3.0869 12.6939,-4.7439 0.306,-1.0967 0.5859,-2.1987 0.8393,-3.3053 0.439,-1.9842 0.8084,-3.9793 1.1075,-5.9826 0.2885,-1.9248 0.5321,-3.8543 0.7305,-5.7874 0.1582,-1.5879 0.2997,-3.1769 0.4244,-4.7669 0.1136,-1.5907 0.2104,-3.1822 0.2905,-4.7743 0.129,-3.0146 0.2352,-6.0298 0.3186,-9.0456 0.023,-0.9566 0.028,-1.9134 0.014,-2.8702 -0.01,-0.9569 -0.054,-1.9134 -0.1345,-2.8678 -0.048,-0.7066 -0.1225,-1.4117 -0.2247,-2.114 -0.091,-0.6666 -0.2031,-1.3311 -0.3346,-1.9927 -0.194,-0.9733 -0.4621,-1.9346 -0.8026,-2.8778 -0.2233,-0.6246 -0.5091,-1.2315 -0.8542,-1.8139 -0.093,-0.1547 -0.1931,-0.3059 -0.3013,-0.453 -0.091,-0.1386 -0.2034,-0.2659 -0.3343,-0.3785 -0.1942,-0.1505 -0.4037,-0.2857 -0.6261,-0.4041 -0.5226,-0.2926 -1.0831,-0.532 -1.6702,-0.7135 -0.7198,-0.2227 -1.4652,-0.379 -2.2235,-0.4664 -0.4503,-0.056 -0.9041,-0.09 -1.359,-0.1 -1.7939,-0.053 -3.5834,0.1833 -5.2758,0.6964 -0.801,0.24 -1.5669,0.5586 -2.2826,0.9495 -0.06,-0.021 -0.1248,-0.026 -0.188,-0.016 -0.1154,0.016 -0.2268,0.049 -0.329,0.097 -0.1658,0.072 -0.3227,0.159 -0.4681,0.2585 0.3337,-2.93 0.6451,-5.8619 0.9342,-8.7954 0.2969,-3.0436 0.5353,-6.0912 0.715,-9.1416 0.1513,-2.471 0.2358,-4.9447 0.2532,-7.419 0.017,-1.8396 -0.034,-3.6791 -0.1517,-5.5159 -0.081,-1.2717 -0.2296,-2.5395 -0.4441,-3.7997 -0.1325,-0.7672 -0.3198,-1.5267 -0.561,-2.2741 -0.1377,-0.4248 -0.3133,-0.8398 -0.5251,-1.2415 -0.1337,-0.2521 -0.2938,-0.4932 -0.4783,-0.7204 -0.1335,-0.1629 -0.2881,-0.3123 -0.4608,-0.4453 -0.1618,-0.1235 -0.3461,-0.2234 -0.5455,-0.2958 -0.2812,-0.099 -0.5884,-0.1299 -0.8887,-0.09 -0.2145,0.027 -0.4237,0.079 -0.6219,0.1542 -0.2565,0.097 -0.5005,0.2159 -0.7279,0.3562 -0.2969,0.1809 -0.577,0.3814 -0.8377,0.5995 -0.4911,0.4082 -0.9459,0.8473 -1.3605,1.3138 -0.455,0.5013 -0.8853,1.0188 -1.2896,1.5511 -0.4328,0.5823 -0.8302,1.1835 -1.1906,1.8011 -0.6282,1.0881 -1.1836,2.206 -1.6636,3.3483 -0.2254,0.519 -0.4346,1.0429 -0.6274,1.5714 -0.196,0.5276 -0.3841,1.0572 -0.5643,1.5889 -0.4824,1.4466 -0.9117,2.9059 -1.2873,4.3756 -0.5234,2.0481 -0.9782,4.1086 -1.3638,6.179 -0.28,1.5358 -0.542,3.0741 -0.7862,4.6144 -0.4009,2.6467 -0.745,5.2995 -1.0319,7.957 -0.4782,4.3795 -0.8492,8.767 -1.1127,13.1598 -0.3104,5.1809 -0.5605,10.3642 -0.7502,15.5493 -0.6604,-0.4381 -1.3845,-0.8007 -2.1539,-1.0785 -1.1695,-0.4327 -2.4135,-0.6984 -3.683,-0.7868 -0.7557,-0.055 -1.5165,-0.034 -2.2663,0.065 -0.6044,0.079 -1.1941,0.2268 -1.7538,0.438 -0.2283,0.084 -0.4471,0.1855 -0.6538,0.3036 -0.1272,0.08 -0.2403,0.175 -0.3355,0.2826 -0.1162,0.1165 -0.225,0.2384 -0.3258,0.365 -0.4395,0.5535 -0.8142,1.1428 -1.1186,1.7595 -0.4684,0.9319 -0.8571,1.8918 -1.1629,2.8722 -0.4337,1.3628 -0.7778,2.7454 -1.0306,4.1414 -0.1653,0.8827 -0.3063,1.7687 -0.423,2.6571 -0.3209,2.4335 -0.6234,4.8688 -0.9074,7.3057 -0.2903,2.5758 -0.5082,5.1571 -0.6536,7.7418 -0.06,1.104 -0.1058,2.2086 -0.1361,3.3135 -0.02,1.1051 -0.025,2.2104 -0.015,3.3156 0.015,0.8877 0.047,1.7752 0.094,2.6621 0.058,0.8864 0.1319,1.772 0.2219,2.6564 0.063,0.543 0.1363,1.0851 0.2202,1.626 2.7372,-0.7196 5.4668,-1.4605 8.1884,-2.2225 l 1.6492,-0.4689" /></g></g><g
               id="g302"><g
                 clip-path="url(#clipPath308)"
                 id="g304"><path
                   id="path310"
                   style="fill:#538951;fill-opacity:1;fill-rule:nonzero;stroke:none"
                   d="m 1046.1551,2708.7842 c -11.4296,1.8485 -22.7761,4.0571 -34.0164,6.6211 -0.2606,1.3866 -0.5273,2.7723 -0.7999,4.1571 -2.6878,13.5615 -5.5493,27.0973 -8.5839,40.6049 -2.0755,-0.6673 -4.2665,-1.0321 -6.4823,-1.0792 -1.6685,-0.038 -3.3375,0.057 -4.9856,0.2836 -1.8992,0.2601 -3.7692,0.6581 -5.5899,1.1896 -2.0891,0.6106 -4.1201,1.3587 -6.0749,2.2376 -3.3478,1.4965 -6.5158,3.2721 -9.4582,5.3011 -2.7512,1.9286 -5.3067,4.0539 -7.6391,6.3532 -1.4282,1.3986 -2.8065,2.8342 -4.133,4.3048 -1.551,1.7126 -3.009,3.4858 -4.3694,5.3138 -1.9794,2.6403 -3.8247,5.353 -5.5307,8.1303 -1.7997,2.9634 -3.4254,6.0023 -4.871,9.1051 -2.7651,5.9463 -4.9548,12.0777 -6.547,18.3323 -0.8796,3.4691 -1.6013,6.9662 -2.1636,10.4835 -1.1451,7.2888 -1.6652,14.6399 -1.5563,21.994 0.0706,3.2139 0.2187,6.4261 0.4443,9.6347 0.0887,1.1924 0.1619,2.3855 0.2194,3.5793 0.023,0.6894 0.0208,1.3792 -0.006,2.0684 -0.0794,2.4835 -0.1652,4.9668 -0.2575,7.45 -0.0827,2.2392 -0.0687,4.4803 0.042,6.7186 0.0918,1.6573 0.2917,3.3089 0.5988,4.947 0.2778,1.4967 0.7171,2.968 1.3121,4.3951 0.4838,1.1722 1.1289,2.2908 1.9214,3.332 1.0864,1.4415 2.5328,2.6578 4.2345,3.5607 0.9572,0.4928 1.9714,0.8992 3.0262,1.2126 1.0675,0.3322 2.1808,0.5437 3.3119,0.6292 1.2581,0.1004 2.5268,-0.015 3.7323,-0.3402 1.2775,-0.3617 2.4587,-0.9372 3.4752,-1.6932 0.9143,-0.6844 1.7298,-1.4602 2.4293,-2.3108 0.8745,-1.0705 1.6331,-2.2073 2.2664,-3.3963 0.9672,-1.8306 1.7686,-3.7224 2.397,-5.6586 0.8464,-2.6125 1.5249,-5.263 2.0325,-7.9393 0.3848,-1.9178 0.7005,-3.8452 0.9465,-5.7797 0.4763,-3.6049 0.8294,-7.2211 1.0588,-10.8437 0.2962,-4.7053 0.4761,-9.4154 0.5398,-14.1271 l 0.1628,-11.0621 c 0.0168,-2.0694 0.1416,-4.1371 0.374,-6.1969 0.3428,-3.4885 0.7079,-6.9753 1.0953,-10.4603 0.3183,-2.9341 0.7443,-5.8588 1.2772,-8.7698 0.2011,-1.0657 0.4219,-2.1286 0.6622,-3.1883 0.2326,-1.0611 0.5057,-2.1155 0.8189,-3.1613 0.2505,-0.89 0.5374,-1.7723 0.8604,-2.645 0.6298,-1.7944 1.4261,-3.5428 2.381,-5.2283 1.0841,-1.9126 2.4745,-3.6858 4.1308,-5.2681 1.5669,-1.4683 3.413,-2.6979 5.4595,-3.6362 1.7333,-0.8086 3.5803,-1.4231 5.4958,-1.8286 2.4823,-0.5167 5.0226,-0.8003 7.5763,-0.8458 -0.5538,2.7265 -1.0964,5.4546 -1.6279,8.1844 -1.2677,6.4801 -2.4168,12.9769 -3.4469,19.488 -0.5736,3.7711 -1.1097,7.5463 -1.6082,11.3253 -0.9974,6.064 -1.9712,12.1308 -2.9213,18.2003 -0.7467,4.6995 -1.4498,9.404 -2.1092,14.1131 -0.7434,5.4389 -1.3256,10.8932 -1.7462,16.3575 -0.2749,3.5817 -0.448,7.1686 -0.5192,10.7576 -0.0289,1.9224 -0.027,3.8451 0.006,5.7675 0.0224,1.9227 0.1064,3.8446 0.252,5.7634 0.2299,3.4416 0.6587,6.8713 1.285,10.2764 0.5428,2.9518 1.3295,5.8668 2.3542,8.723 0.8501,2.3966 1.9681,4.7171 3.3385,6.9293 1.1388,1.8561 2.5396,3.5848 4.1708,5.1472 2.2892,2.2179 5.1472,3.9496 8.3491,5.0588 1.622,0.1145 3.2542,-0.055 4.7974,-0.4985 1.4267,-0.4236 2.763,-1.0446 3.9559,-1.8384 1.2614,-0.849 2.404,-1.8205 3.4047,-2.8952 1.3726,-1.4882 2.5805,-3.0828 3.6082,-4.7633 1.3132,-2.154 2.4594,-4.38 3.4311,-6.6634 1.1722,-2.7508 2.1969,-5.5462 3.071,-8.3774 0.6976,-2.1949 1.3223,-4.4064 1.8734,-6.6318 0.5599,-2.2234 1.0809,-4.454 1.5629,-6.6908 1.1144,-5.2595 2.0593,-10.5445 2.8337,-15.8487 0.7751,-5.2219 1.4515,-10.4542 2.029,-15.6949 0.946,-8.6132 1.7339,-17.2386 2.3636,-25.8731 0.5191,-7.0454 0.9892,-14.0933 1.4102,-21.1435 l 0.911,0.1709 c 2.1115,0.401 4.1591,1.0186 6.0986,1.8394 3.0517,1.2739 5.6649,3.2067 7.5828,5.6089 1.2389,1.5873 2.2202,3.3119 2.9168,5.1263 0.7766,2.0627 1.3287,4.1826 1.6492,6.3327 0.3587,2.4175 0.5593,4.8503 0.6009,7.2871 0.057,2.697 0.017,5.395 -0.1215,8.0899 -0.1561,3.2127 -0.3325,6.4247 -0.5292,9.6358 -0.089,1.9014 -0.2771,3.7984 -0.5638,5.6853 l -1.4679,10.1057 c -0.6651,4.5271 -1.2101,9.0666 -1.6347,13.615 -0.3128,3.3753 -0.5049,6.7581 -0.5761,10.1436 -0.018,1.3673 -0.01,2.7349 0.022,4.102 0.025,1.3676 0.1,2.7341 0.2252,4.0976 0.1659,2.0597 0.4758,4.1091 0.9281,6.1369 0.3355,1.5372 0.8226,3.0471 1.4561,4.5136 0.422,0.9854 0.956,1.9329 1.5945,2.8285 0.5198,0.7361 1.1461,1.4126 1.8641,2.0136 0.8518,0.72 1.867,1.282 2.9827,1.6511 1.1226,0.3563 2.314,0.5261 3.5106,0.5005 1.1305,-0.028 2.2531,-0.172 3.3436,-0.4294 1.4432,-0.3157 2.8077,-0.8532 4.0275,-1.5864 1.2576,-0.7753 2.3559,-1.725 3.2499,-2.8099 0.9036,-1.111 1.658,-2.3061 2.2486,-3.5626 0.7814,-1.6868 1.3949,-3.4273 1.834,-5.203 0.2191,-0.9093 0.4209,-1.8216 0.6054,-2.7366 0.2961,-1.5757 0.5425,-3.158 0.7388,-4.7451 l 0.8548,-6.831 c 0.077,-0.6329 0.1762,-1.2636 0.2969,-1.8915 0.1889,-0.9251 0.3948,-1.8476 0.6177,-2.7671 0.4983,-2.1076 0.9639,-4.2208 1.3967,-6.339 0.5137,-2.5684 0.9366,-5.1496 1.2681,-7.7399 0.4195,-3.1952 0.7212,-6.4009 0.9046,-9.6124 0.1821,-3.3624 0.206,-6.7297 0.072,-10.0938 -0.2381,-6.6642 -1.1798,-13.2963 -2.8134,-19.8147 -1.4668,-5.9007 -3.5992,-11.665 -6.3669,-17.2115 -2.1113,-4.2585 -4.663,-8.3461 -7.6245,-12.2139 -0.9895,-1.3109 -2.0494,-2.5817 -3.1763,-3.8083 -3.304,-3.6306 -7.2486,-6.7963 -11.6912,-9.3827 -1.3302,-0.7852 -2.7219,-1.491 -4.1651,-2.1123 -1.2612,-0.5322 -2.5528,-1.0096 -3.87,-1.4302 -2.5154,-0.8074 -5.1743,-1.2366 -7.8598,-1.2688 0.6134,-11.8634 1.2943,-23.7242 2.0427,-35.5819 0.5396,-8.7878 1.2657,-17.5664 2.1781,-26.3315 0.2384,-2.1687 0.5477,-4.3313 0.9275,-6.4851 0.6416,-3.7802 1.2721,-7.5618 1.8916,-11.3447 l 0.2842,-1.8047" /></g></g><g
               id="g312"><g
                 clip-path="url(#clipPath318)"
                 id="g314"><path
                   id="path320"
                   style="fill:#928755;fill-opacity:1;fill-rule:nonzero;stroke:none"
                   d="m 1229.6376,2919.3628 c -0.052,0.5582 -0.1146,1.1157 -0.1874,1.6723 -0.054,0.3762 -0.1203,0.751 -0.1998,1.1239 l -0.8478,4.0332 c -0.1988,0.9386 -0.368,1.8816 -0.5074,2.8281 -0.074,0.5513 -0.137,1.1037 -0.1897,1.6568 -0.096,1.0808 -0.086,2.1666 0.031,3.2459 0.092,0.805 0.2903,1.5985 0.5904,2.3653 0.2996,0.7505 0.7428,1.4529 1.3115,2.0785 0.5553,0.596 1.2319,1.1007 1.997,1.4898 0.5743,0.3051 1.1893,0.55 1.8316,0.7294 0.6804,0.1876 1.3962,0.2625 2.1091,0.2207 0.7113,-0.05 1.4029,-0.2254 2.0318,-0.5147 0.5288,-0.2405 1.02,-0.5376 1.4618,-0.8841 0.5409,-0.4207 1.0322,-0.8862 1.4666,-1.3897 0.6498,-0.7484 1.2242,-1.5428 1.7171,-2.3747 0.6558,-1.0962 1.2342,-2.2252 1.7321,-3.3809 0.3387,-0.7627 0.649,-1.5345 0.9306,-2.3142 0.2862,-0.7782 0.558,-1.5603 0.8152,-2.346 0.6213,-1.9487 1.1728,-3.9132 1.6538,-5.8908 0.646,-2.6626 1.2211,-5.3376 1.7248,-8.0227 l 1.1375,-6.0122 c 0.2049,-1.1242 0.4686,-2.24 0.7901,-3.344 0.5158,-1.868 1.0435,-3.7337 1.583,-5.5968 0.4484,-1.5637 0.9533,-3.1151 1.514,-4.6519 0.5011,-1.39 1.0921,-2.7548 1.7704,-4.0883 0.6049,-1.1852 1.3362,-2.32 2.1846,-3.3898 0.7542,-0.9387 1.654,-1.7849 2.6744,-2.5153 1.5687,-1.099 3.4438,-1.8288 5.4409,-2.1177 1.2715,-0.19 2.5651,-0.248 3.8527,-0.1727 l 0.5552,0.034 c -1.137,4.0944 -2.2456,8.1946 -3.3255,12.3003 -1.3288,5.0368 -2.5651,10.0912 -3.7086,15.1614 -0.6948,3.0861 -1.3313,6.1817 -1.9092,9.2855 -0.7468,3.9432 -1.3282,7.9081 -1.743,11.8871 -0.1175,1.212 -0.213,2.4255 -0.2862,3.64 -0.078,1.2146 -0.1145,2.4308 -0.1092,3.6472 -0.01,1.5708 0.072,3.141 0.2378,4.7054 0.1391,1.3259 0.383,2.6423 0.7301,3.9399 0.2777,1.0323 0.6699,2.0394 1.1714,3.0076 0.3695,0.7048 0.8339,1.37 1.3837,1.9822 0.6848,0.759 1.5521,1.3826 2.543,1.8282 0.5732,0.2495 1.1823,0.433 1.8114,0.5458 2.0506,-0.1727 4.0264,-0.7518 5.7715,-1.6916 1.24,-0.6593 2.3807,-1.4471 3.396,-2.3458 1.2179,-1.0693 2.3123,-2.237 3.2682,-3.487 1.146,-1.4881 2.1671,-3.0443 3.0555,-4.6568 1.025,-1.8602 1.9418,-3.7629 2.747,-5.7011 0.4588,-1.078 0.883,-2.1667 1.272,-3.2648 0.7679,-2.1188 1.4615,-4.2568 2.0797,-6.4112 0.2975,-1.0402 0.584,-2.0827 0.8593,-3.1274 0.8276,-3.1876 1.5607,-6.3927 2.1986,-9.6122 0.5434,-2.7896 1.0606,-5.5829 1.5517,-8.3797 0.6445,-3.6219 1.2746,-7.2456 1.8903,-10.8712 0.4574,-2.2588 0.8927,-4.5208 1.3056,-6.7859 0.6842,-3.8784 1.2979,-7.7656 1.8411,-11.6603 0.2268,-1.6182 0.447,-3.237 0.6606,-4.8564 1.4535,0.3947 2.8527,0.9238 4.1729,1.578 1.0177,0.5089 1.9553,1.1275 2.7897,1.8408 0.9885,0.8331 1.8053,1.8039 2.4154,2.8713 0.6392,1.1455 1.0887,2.3621 1.3354,3.6144 0.2173,1.1034 0.3313,2.22 0.341,3.3391 0.014,0.5466 0.01,1.0934 -0.025,1.6395 -0.025,0.6443 -0.075,1.2878 -0.1495,1.9293 -0.069,0.6417 -0.1509,1.2825 -0.244,1.9221 -0.2646,1.7443 -0.5929,3.481 -0.9846,5.2076 -0.4599,2.0522 -0.933,4.1022 -1.4192,6.1499 -0.2705,1.2155 -0.6044,2.42 -1.0006,3.6098 l -2.0754,6.3719 c -0.8841,2.7042 -1.7012,5.4242 -2.4508,8.1582 -0.5768,2.1069 -1.0816,4.2279 -1.5137,6.3602 -0.2173,1.146 -0.4135,2.2949 -0.5883,3.4462 -0.2108,1.4522 -0.3377,2.9126 -0.3801,4.3756 -0.015,0.6538 -0.01,1.3078 0.024,1.9611 0.048,1.0208 0.194,2.0364 0.4355,3.0368 0.1845,0.7509 0.4654,1.482 0.8376,2.1799 0.2939,0.542 0.6757,1.0455 1.1341,1.4957 0.8196,0.7924 1.9212,1.3307 3.1337,1.5312 0.6636,0.1139 1.3417,0.1533 2.0171,0.1171 0.6656,-0.027 1.326,-0.1136 1.9709,-0.2575 1.1513,-0.271 2.2179,-0.7586 3.1222,-1.4273 0.6577,-0.4819 1.2459,-1.0293 1.7523,-1.6308 0.6199,-0.7314 1.1592,-1.5106 1.6109,-2.3277 0.4963,-0.894 0.9338,-1.8111 1.3105,-2.7471 0.5013,-1.2663 0.9476,-2.5483 1.338,-3.8431 0.4325,-1.4352 0.8688,-2.8696 1.3089,-4.3032 0.1191,-0.3985 0.2527,-0.7937 0.4006,-1.185 0.2666,-0.6753 0.5419,-1.348 0.8259,-2.0181 0.7571,-1.8058 1.4705,-3.6247 2.1398,-5.4558 1.5016,-4.1979 2.6423,-8.4846 3.4128,-12.8256 0.3663,-2.0964 0.6373,-4.2041 0.8124,-6.3186 0.3121,-3.8132 0.2577,-7.6419 -0.1626,-11.4474 -0.2207,-1.9862 -0.5571,-3.9617 -1.0078,-5.9191 -0.4336,-1.8373 -0.9596,-3.6576 -1.5765,-5.4558 -0.4214,-1.2435 -0.9093,-2.4696 -1.4624,-3.6745 -0.4719,-1.0338 -0.9803,-2.0551 -1.5246,-3.0623 -0.8859,-1.6538 -1.9336,-3.2401 -3.1318,-4.742 -1.2915,-1.588 -2.7616,-3.0634 -4.389,-4.4051 -0.9487,-0.7861 -1.9667,-1.5081 -3.045,-2.1597 -0.9391,-0.5671 -1.9324,-1.0649 -2.9694,-1.488 -0.899,-0.3672 -1.8356,-0.6623 -2.7979,-0.8815 -1.2762,-0.2926 -2.6004,-0.4 -3.9179,-0.3175 0.9031,-8.1647 1.9106,-16.3206 3.0225,-24.4663 0.3474,-2.5217 0.7279,-5.0399 1.1413,-7.5542 0.3812,-2.2147 0.7848,-4.4266 1.2107,-6.6353 0.4407,-2.2065 0.9037,-4.4097 1.389,-6.6094 l -2.6828,10.4593 c -0.016,-1.6065 -0.015,-3.2132 0,-4.8198 l 0.01,-2.0858 c -0.01,-1.8775 -0.089,-3.7542 -0.2486,-5.6267 -0.1204,-1.4144 -0.329,-2.8222 -0.6251,-4.2174 -0.2051,-0.964 -0.4946,-1.9133 -0.8661,-2.8399 -0.2322,-0.5737 -0.5238,-1.1284 -0.8712,-1.6575 -0.266,-0.4015 -0.5853,-0.7752 -0.9517,-1.1135 -0.3384,-0.3087 -0.7339,-0.5673 -1.1705,-0.7654 -0.5807,-0.2551 -1.2277,-0.3787 -1.8798,-0.359 -0.473,0.012 -0.9421,0.078 -1.3947,0.1969 -0.8204,0.2009 -1.5816,0.549 -2.2334,1.0212 -0.5398,0.389 -1.027,0.8288 -1.4522,1.3111 -0.6385,0.7188 -1.196,1.4879 -1.6651,2.297 -0.6328,1.0778 -1.1829,2.1898 -1.6469,3.3291 -0.3289,0.7809 -0.6266,1.5711 -0.8925,2.3694 -0.2713,0.7968 -0.5266,1.5976 -0.766,2.4019 -0.6192,2.1517 -1.1552,4.3205 -1.6072,6.5027 -0.301,1.4094 -0.5733,2.8233 -0.8166,4.2409 -0.3851,2.2566 -0.7636,4.5141 -1.1356,6.7725 -0.2035,1.2879 -0.4492,2.5707 -0.7369,3.8467 -0.6015,2.5726 -1.224,5.1416 -1.8673,7.7067 -0.6573,2.5626 -1.3354,5.1211 -2.0344,7.6755 -1.8929,6.9048 -3.825,13.8016 -5.7962,20.6902 -1.5451,-0.3676 -3.1525,-0.5043 -4.7518,-0.4041 -0.8369,0.051 -1.6703,0.1384 -2.4969,0.2614 -0.9483,0.1477 -1.8836,0.3512 -2.7993,0.609 -3.05,0.8397 -5.9281,2.0836 -8.53,3.6865 -0.8856,0.5396 -1.7415,1.1143 -2.5649,1.7222 -2.4526,1.7885 -4.7136,3.7617 -6.7561,5.8961 -2.6701,2.7781 -5.0188,5.7724 -7.013,8.9407 -2.2116,3.4983 -4.0486,7.1614 -5.4883,10.9446 -0.735,1.9078 -1.38,3.8403 -1.9334,5.7927 -0.5232,1.8663 -0.9775,3.7463 -1.3622,5.6372 -0.3169,1.5318 -0.5796,3.0714 -0.7877,4.6169 -0.1664,1.2758 -0.3131,2.5534 -0.4399,3.8326" /></g></g></g></g></g><g
         id="g322"
         transform="translate(5.4505132,36.336754)"><g
           id="g324"><g
             clip-path="url(#clipPath330)"
             id="g326"><path
               id="path332"
               style="fill:#538951;fill-opacity:1;fill-rule:evenodd;stroke:none"
               d="m 652.7587,3013.0348 c 15.0462,8.612 32.9141,10.8414 49.6151,6.1904 l 2.8431,-384.3115 c -21.0469,-15.8319 -50.0285,-15.8319 -71.0754,0 l 18.6172,378.1211" /></g></g></g><g
         id="g334"><g
           id="g336"><g
             clip-path="url(#clipPath342)"
             id="g338"><path
               id="path344"
               style="fill:#fcae66;fill-opacity:1;fill-rule:evenodd;stroke:none"
               d="m 1001.1987,3254.5564 c 2.8026,6.9757 6.8408,10.9735 11.0842,10.9735 4.2434,0 8.2815,-3.9978 11.0842,-10.9735 -0.7767,-68.6871 -0.9349,-137.401 -0.4744,-206.1017 -58.64,-20.1947 -116.855,-45.9161 -174.4828,-77.0927 0.2576,-191.155 10.4449,-381.6257 30.3654,-567.7397 -26.0219,-5.5826 -52.2453,-4.8895 -78.1981,2.0666 -8.5787,207.0553 -11.4152,415.0591 -8.4936,622.8661 2.3829,5.7542 5.6792,9.3001 9.2158,9.9136 55.3739,2.6614 110.7383,6.2022 166.0888,10.6219 8.5039,70.5217 19.8174,139.2739 33.8105,205.4659" /></g></g></g><g
         id="g346"><g
           id="g348"><g
             clip-path="url(#clipPath354)"
             id="g350"><path
               id="path356"
               style="fill:#4b7faf;fill-opacity:1;fill-rule:evenodd;stroke:none"
               d="m 1152.4431,3300.63 c -12.0959,2.6819 -22.9317,-2.6996 -30.8769,-15.3348 8.3937,-73.9736 16.1354,-147.7881 23.2214,-221.4082 62.1324,-0.5624 124.7625,-4.1684 187.8398,-10.8152 63.6641,-222.0577 118.2651,-448.8089 163.0945,-677.3112 30.2777,-10.5969 59.9609,-15.085 88.5975,-13.396 -76.3066,236.9815 -149.2199,476.5095 -218.6137,718.1692 -3.5379,5.1256 -7.5052,7.9003 -11.0918,7.7576 -43.3758,-3.7276 -86.9124,-6.5918 -130.6041,-8.5921 -21.3254,75.4827 -45.2591,149.3675 -71.5667,220.9307" /></g></g></g><g
         id="g358"><g
           id="g360"><g
             clip-path="url(#clipPath366)"
             id="g362"><path
               id="path368"
               style="fill:#ff422f;fill-opacity:1;fill-rule:evenodd;stroke:none"
               d="m 1324.0005,3265.5299 c -9.93,13.942 -20.975,21.2369 -30.877,20.3933 31.7755,-64.3285 63.1568,-129.4065 94.1303,-195.2058 46.1953,-1.458 92.87,-5.9594 139.9553,-13.4976 67.4168,-180.2334 126.7992,-368.4455 177.1016,-561.3232 33.3312,11.6575 65.1296,29.3912 95.0776,53.024 -67.014,175.358 -130.9298,354.1181 -191.5621,535.7612 -3.5379,5.1256 -7.5052,7.9003 -11.0918,7.7576 -63.9407,-3.4616 -128.0365,-6.0595 -192.2837,-7.7934 -24.9297,57.1064 -51.8695,110.9805 -80.4502,160.8839" /></g></g></g><g
         id="g370"
         transform="translate(-32.703079,21.802053)"><g
           id="g372"><g
             clip-path="url(#clipPath378)"
             id="g374"><path
               id="path380"
               style="fill:#538951;fill-opacity:1;fill-rule:evenodd;stroke:none"
               d="m 1742.8169,3084.5335 c -3.1613,11.145 2.4083,22.9101 13.0323,27.5292 10.624,4.6191 23.0266,0.6681 29.0212,-9.2451 l 261.4633,-544.8706 c -18.7383,-19.3805 -41.9787,-33.8261 -67.6514,-42.0504 l -235.8654,568.6369" /></g></g></g><g
         id="g416" /><g
         id="g540" /></g></g></svg>
